<svg xmlns="http://www.w3.org/2000/svg" viewBox="0 0 64 64"><path fill="#a4e276" d="M3 31h58v30H3z"/><path fill="#898890" d="M41 21h6v10h-6zM29 21h6v10h-6zM17 21h6v10h-6zM15.21 14H50v3H14v-3h1.21z"/><path fill="#e0e0e2" d="M48 17v4h-8v-4h8zM36 17v4h-8v-4h8zM24 17v4h-8v-4h8zM52 10v4H12v-4l20-7 20 7z"/><circle cx="32" cy="46" r="11" fill="#ffda44"/><path fill="#dcf4ca" d="M12 61H3v-9a9 9 0 019 9zM3 31h9a9 9 0 01-9 9zm58 21v9h-9a9 9 0 019-9zm0-21v9a9 9 0 01-9-9z"/><circle cx="32" cy="9" r="2" fill="#d80027"/><path fill="#fff" d="M33 45v-2a1 1 0 011 1h2a3 3 0 00-3-3v-1h-2v1a3 3 0 000 6v2a1 1 0 01-1-1h-2a3 3 0 003 3v1h2v-1a3 3 0 000-6zm-3-1a1 1 0 011-1v2a1 1 0 01-1-1zm3 5v-2a1 1 0 010 2zM24 45h2v2h-2zM38 45h2v2h-2z"/><path fill="#ffda44" d="M7 20h2v2H7zM7 24h2v2H7zM5 22h2v2H5zM9 22h2v2H9zM55 20h2v2h-2zM55 24h2v2h-2zM53 22h2v2h-2zM57 22h2v2h-2z"/><path fill="#787680" d="M14 14h36v1H14z"/></svg>