<svg xmlns="http://www.w3.org/2000/svg" viewBox="0 0 64 64"><path fill="#a97c50" d="M51,19V57a4,4,0,0,1-4,4H17a4,4,0,0,1-4-4V19Z"/><circle cx="34" cy="44" r="12" fill="#996742"/><circle cx="32" cy="42" r="12" fill="#00ccb3"/><path fill="#ff6243" d="M39.9,39.1l-8.49,8.49a1.992,1.992,0,0,1-2.82,0l-4.25-4.25,2.83-2.83L30,43.34l7.07-7.07Z"/><rect width="4" height="6" x="23" y="19" fill="#996742"/><rect width="4" height="6" x="41" y="19" fill="#996742"/><path fill="#8b5e3c" d="M43,14v9H39V14a7,7,0,1,0-14,0v9H21V14a11,11,0,1,1,22,0Z"/></svg>