<svg xmlns="http://www.w3.org/2000/svg" width="64" height="64"><path fill="#E15F5A" d="M50.411 4.731v10.432l-1.978-1.631-5.762-4.742V4.731z"/><path fill="#E0E1E0" d="M7.165 23.219h49.66v38.015H7.165z"/><path fill="#F26E62" d="M56.825 23.29v-.071H7.165v.071H3.708L32.005 0l9.718 8.005.948.785 5.762 4.742 1.978 1.631 9.881 8.127z"/><path fill="#F26E62" d="M7.165 23.219h3.304v.071H7.165zM53.531 23.219h3.294v.071h-3.294z"/><path fill="#F26E62" d="M7.165 23.219h49.66v.071H7.165z"/><path fill="#FEDC7D" d="M58.93 64H5.159a1.282 1.282 0 01-1.282-1.282v-.199c0-.708.574-1.282 1.282-1.282H58.93c.708 0 1.282.574 1.282 1.282v.199c0 .708-.574 1.282-1.282 1.282z"/><path fill="#F26E62" d="M41.666 1.809h9.745v2.93h-9.745z"/><path fill="#E15F5A" d="M3.708 23.29h56.584v1.621H3.708z"/><path fill="#93CDBE" d="M52.452 61.237h-13.26V47.545a6.63 6.63 0 016.63-6.63 6.63 6.63 0 016.63 6.63v13.692z"/><path fill="#EDEDED" d="M11.544 32.72h9.025v9.025h-9.025z"/><path fill="#93CDBE" d="M12.375 33.551h7.364v7.364h-7.364z"/><path fill="#EDEDED" d="M11.544 44.656h9.025v9.025h-9.025z"/><path fill="#93CDBE" d="M12.375 45.487h7.364v7.364h-7.364z"/><path fill="#EDEDED" d="M22.814 32.72h9.025v9.025h-9.025z"/><path fill="#93CDBE" d="M23.644 33.551h7.364v7.364h-7.364z"/><path fill="#EDEDED" d="M22.814 44.656h9.025v9.025h-9.025z"/><path fill="#93CDBE" d="M23.644 45.487h7.364v7.364h-7.364z"/><circle cx="45.822" cy="32.279" r="3.569" fill="#75BBA7"/></svg>