<svg xmlns="http://www.w3.org/2000/svg" viewBox="0 0 46 46"><path fill="#fbb03b" d="M23,40a83.45,83.45,0,0,1-11.87-.85,5.08,5.08,0,0,1-4.28-4.28,83.35,83.35,0,0,1,0-23.73,5.08,5.08,0,0,1,4.28-4.28,83.42,83.42,0,0,1,23.73,0,5.08,5.08,0,0,1,4.28,4.28,83.35,83.35,0,0,1,0,23.73,5.08,5.08,0,0,1-4.28,4.28A83.45,83.45,0,0,1,23,40ZM23,8a81.31,81.31,0,0,0-11.58.83h0a3,3,0,0,0-2.59,2.59,81.28,81.28,0,0,0,0,23.16,3,3,0,0,0,2.59,2.59,81.28,81.28,0,0,0,23.16,0,3,3,0,0,0,2.59-2.59,81.28,81.28,0,0,0,0-23.16,3,3,0,0,0-2.59-2.59A81.31,81.31,0,0,0,23,8Z"/><path fill="#fbb03b" d="M23,21.13h0a9,9,0,0,1,9,9v0A1.87,1.87,0,0,1,30.13,32H15.87A1.87,1.87,0,0,1,14,30.13v0A9,9,0,0,1,23,21.13Z"/><ellipse cx="23" cy="18.36" fill="#f15a24" rx="4.51" ry="4.36"/></svg>