<svg xmlns="http://www.w3.org/2000/svg" data-name="Layer 2" viewBox="0 0 100 100"><g data-name="&lt;Group&gt;"><path fill="#c78c69" d="M53.7,17v3H46.3V17a1.1,1.1,0,0,1,1.1-1.1h5.2A1.1,1.1,0,0,1,53.7,17Z"/><path fill="#c78c69" d="M69.83,14.43V20H57.7V17a5.11,5.11,0,0,0-5.1-5.1H47.4A5.11,5.11,0,0,0,42.3,17v3H30.17V14.43a6.58,6.58,0,0,1,6.57-6.57H63.26A6.58,6.58,0,0,1,69.83,14.43Z"/><path fill="#f9d4b2" d="M61.27 32.34a2.79 2.79 0 1 0-2.79 2.79A2.78 2.78 0 0 0 61.27 32.34zm.61-6.09a2 2 0 0 0-2-2H57.09a2 2 0 0 0 0 4h2.79A2 2 0 0 0 61.88 26.25zM31 24H69a2 2 0 0 0-.48 1 2 2 0 0 0 1.69 2.28 5.12 5.12 0 0 1 2.32 9.13 33.79 33.79 0 0 0 .4-5.13 2 2 0 0 0-4 0 27.7 27.7 0 0 1-2.44 11.49c-3.19 7-9 11.46-15.45 11.88H49c-6.39-.42-12.24-4.87-15.43-11.84a27.81 27.81 0 0 1-2.46-11.53 2 2 0 0 0-4 0 32.56 32.56 0 0 0 .41 5.13 5.11 5.11 0 0 1 2.31-9.12A2 2 0 0 0 31.52 25 2.06 2.06 0 0 0 31 24zm7.25 4.26H48v7.86a2 2 0 0 0 4 0V26.25a2 2 0 0 0-2-2H38.29a2 2 0 1 0 0 4zm3.23 1.31a2.79 2.79 0 1 0 2.78 2.78A2.78 2.78 0 0 0 41.52 29.56zM53.39 46.33a2 2 0 0 0-2-2H48.61a2 2 0 0 0 0 4h2.78A2 2 0 0 0 53.39 46.33zM31.09 62.16v30H23.37V77.22A18.69 18.69 0 0 1 31.09 62.16zM56.05 58.65v7.76a6.05 6.05 0 1 1-12.1 0V58.65h5c.34 0 .68 0 1 0s.69 0 1 0zM76.63 77.22V92.14H68.91v-30A18.69 18.69 0 0 1 76.63 77.22z"/><path fill="#6c95a4" d="M40,58.76v7.65a10.05,10.05,0,1,0,20.1,0V58.76l.56.08c.44.06.87.13,1.29.22l.7.16c.4.1.78.21,1.17.34l.69.24.45.18V92.14H35.09V60l.45-.18.69-.24a12,12,0,0,1,1.17-.33l.7-.17c.42-.09.85-.16,1.29-.22Z"/><path fill="#634" d="M80.63,77.22V94.14a2,2,0,0,1-2,2H21.37a2,2,0,0,1-2-2V77.22A22.68,22.68,0,0,1,32.23,56.84a21.79,21.79,0,0,1,6.19-1.91,25.81,25.81,0,0,1-8.48-10.45,30.85,30.85,0,0,1-1.26-3.23,9.11,9.11,0,0,1-1.3-17.42A2,2,0,0,1,26.17,22V14.43A10.58,10.58,0,0,1,36.74,3.86H63.26A10.58,10.58,0,0,1,73.83,14.43V20h4.8a2,2,0,0,1,0,4H73.05a9.12,9.12,0,0,1-1.72,17.26,30.38,30.38,0,0,1-1.24,3.18,25.82,25.82,0,0,1-8.51,10.5,22.11,22.11,0,0,1,6.19,1.91A22.7,22.7,0,0,1,80.63,77.22Zm-4,14.92V77.22a18.69,18.69,0,0,0-7.72-15.06v30ZM74.5,32.34a5.13,5.13,0,0,0-4.33-5.06A2,2,0,0,1,68.48,25,2,2,0,0,1,69,24H31a2.06,2.06,0,0,1,.48,1,2,2,0,0,1-1.69,2.28,5.11,5.11,0,0,0-2.31,9.12,32.56,32.56,0,0,1-.41-5.13,2,2,0,0,1,4,0,27.81,27.81,0,0,0,2.46,11.53c3.19,7,9,11.42,15.43,11.84h2c6.41-.42,12.26-4.89,15.45-11.88a27.7,27.7,0,0,0,2.44-11.49,2,2,0,0,1,4,0,33.79,33.79,0,0,1-.4,5.13A5.13,5.13,0,0,0,74.5,32.34ZM69.83,20V14.43a6.58,6.58,0,0,0-6.57-6.57H36.74a6.58,6.58,0,0,0-6.57,6.57V20H42.3V17a5.11,5.11,0,0,1,5.1-5.1h5.2A5.11,5.11,0,0,1,57.7,17v3ZM64.91,92.14V60l-.45-.18-.69-.24c-.39-.13-.77-.24-1.17-.34l-.7-.16c-.42-.09-.85-.16-1.29-.22l-.56-.08v7.65a10.05,10.05,0,1,1-20.1,0V58.76l-.56.08c-.44.06-.87.13-1.29.22l-.7.17a12,12,0,0,0-1.17.33l-.69.24-.45.18V92.14ZM56.05,66.41V58.65H51c-.34,0-.68,0-1,0s-.69,0-1,0H44v7.76a6.05,6.05,0,1,0,12.1,0ZM53.7,20V17a1.1,1.1,0,0,0-1.1-1.1H47.4A1.1,1.1,0,0,0,46.3,17v3ZM31.09,92.14v-30a18.69,18.69,0,0,0-7.72,15.06V92.14Z"/><path fill="#634" d="M59.88 24.25a2 2 0 0 1 0 4H57.09a2 2 0 0 1 0-4zM58.48 29.56a2.79 2.79 0 1 1-2.78 2.78A2.78 2.78 0 0 1 58.48 29.56zM51.39 44.33a2 2 0 0 1 0 4H48.61a2 2 0 0 1 0-4zM52 26.25v9.86a2 2 0 0 1-4 0V28.25H38.29a2 2 0 1 1 0-4H50A2 2 0 0 1 52 26.25z"/><path fill="#634" d="M41.52,29.56a2.79,2.79,0,1,1-2.79,2.78A2.78,2.78,0,0,1,41.52,29.56Z"/></g></svg>