<svg xmlns="http://www.w3.org/2000/svg" width="48" height="48" viewBox="0 0 48 48"><g transform="translate(0 -1004.362)"><g transform="matrix(1.92 0 0 1.92 -47.127 973.817)"><circle cx="37.045" cy="28.409" r="12.5" fill="#50b748" fill-rule="evenodd"/></g><g transform="matrix(.99902 0 0 .99902 493.541 -1311.73)"><g transform="translate(-65 76)"><g transform="matrix(1.26316 0 0 1.28 -69.632 617.899)"><path fill="#f5f7f7" d="m -256,1275.3622 -19,0 0,20.3125 4.75,4.6875 14.25,0 z"/><path fill="#cad1d8" d="m -270.25,1300.3622 0,-4.6875 -4.75,0 z"/><path fill="#f0f3f3" d="m -270.25,1295.6747 0,4.6875 4.75,0 z"/><g transform="matrix(.2375 0 0 .229 -143.66 1043.046)"><path fill="#78c8f0" fill-rule="evenodd" d="m -533.34049,1031.9068 0,2.8125 5.26351,3.0077 c 1.07381,0.6136 1.7365,1.7555 1.73649,2.9923 l 0,4.4918 -20,0 0,-4.3951 c 0,-1.2965 0.69471,-2.4936 1.82041,-3.1369 l 5.17959,-2.9598 0,-2.8125"/><path fill="#f8b84e" d="m -539.34049,1031.6111 6,0 0,4.5687 -3,2.0469 -3,-2.0469 z"/><path fill="#fcd062" d="m -538.11933,1022.4681 c -1.23133,0 -2.22259,1.0037 -2.22259,2.2505 l 0,1.7504 c 0,0.01 0.002,0.017 0.002,0.025 -5e-5,0.01 -0.002,0.017 -0.002,0.025 l 0,2.6998 c 0,2.2443 1.78506,4.0518 4.00143,4.0518 2.21636,0 4.00142,-1.8075 4.00142,-4.0518 l 0,-2.6998 c 0,-0.01 -0.002,-0.017 -0.002,-0.025 10e-5,-0.01 0.002,-0.017 0.002,-0.025 l 0,-4.0944 c 0,-0.8417 -0.26182,-0.838 -0.91676,-0.323 -0.32689,0.2569 -0.73798,0.4165 -1.30582,0.4165 l -1.77884,0 z"/><path fill="#1f303e" fill-rule="evenodd" d="m -532.07988,1021.3375 c -0.16566,-0.045 -0.4246,0.1014 -0.79282,0.391 -0.36758,0.2888 -0.82855,0.4677 -1.46706,0.4677 l -2.00073,0 -2.00073,0 c -1.38457,0 -2.49927,1.1303 -2.49927,2.5323 0.002,0.8949 8e-5,1.6661 0,2.5572 0,0.4132 0.32733,0.3817 0.50564,0.2788 0.83309,-0.5103 2.20148,-1.8115 2.30769,-2.2079 1.39238,2.4116 4.18321,0.9792 5.72178,2.118 0.12358,0.1236 0.46443,0.1549 0.46422,-0.2397 -5.1e-4,-1.5829 6.8e-4,-3.5562 6.8e-4,-5.1419 0,-0.4732 -0.0737,-0.7106 -0.23939,-0.7555 z"/><path fill="#27b2e7" d="M-542.84375 1041.9375l0 3.25 1 0 0-3.25-1 0zM-530.8125 1041.9375l0 3.25 1 0 0-3.25-1 0z" color="#000" font-family="Sans" font-weight="400" overflow="visible" style="line-height:normal;-inkscape-font-specification:Sans;text-indent:0;text-align:start;text-decoration-line:none;text-transform:none;block-progression:tb;marker:none"/><circle cx="-534.341" cy="1041.219" r=".5" fill="#34485c"/><circle cx="-534.341" cy="1043.219" r=".5" fill="#34485c"/><rect width="2" height="7" x="-537.341" y="1038.211" fill="#4bbfeb" fill-rule="evenodd"/><path fill="#27b2e7" fill-rule="evenodd" d="m -536.37906,1038.2111 4.01378,1 0,-5 -0.93835,-1.0312 c 0,0 -0.40838,2.0312 -1.03856,3.0312 -0.63019,1 -2.03687,2 -2.03687,2 z"/><path fill="#27b2e7" fill-rule="evenodd" d="m -536.30366,1038.2111 -4.01658,1 0,-3 0,-2 0.94115,-1.0312 c 0,0 0.40838,2.0312 1.03857,3.0312 0.63018,1 2.03686,2 2.03686,2 z"/></g><rect width="13" height="2" x="-408" y="1232" fill="#34485c" rx="0" ry="0" transform="matrix(.79167 0 0 .78125 55.125 314.425)"/><rect width="10.292" height=".781" x="-267.875" y="1279.268" fill="#cad1d8" rx="0" ry="0"/><rect width="10.292" height=".781" x="-267.875" y="1280.831" fill="#cad1d8" rx="0" ry="0"/><rect width="10.292" height="1.563" x="-267.875" y="1283.175" fill="#34485c" rx="0" ry="0"/><rect width="10.292" height=".781" x="-267.875" y="1285.518" fill="#cad1d8" rx="0" ry="0"/><rect width="10.292" height=".781" x="-267.875" y="1287.081" fill="#cad1d8" rx="0" ry="0"/><rect width="10.292" height="1.563" x="-267.875" y="1289.425" fill="#34485c" rx="0" ry="0"/><rect width="10.292" height=".781" x="-267.875" y="1291.768" fill="#cad1d8" rx="0" ry="0"/><rect width="10.292" height=".781" x="-267.875" y="1293.331" fill="#cad1d8" rx="0" ry="0"/></g><rect width="6" height="2" x="-415" y="2260.362" fill="#fbfbfb"/><path fill="#cad1d8" style="line-height:normal;-inkscape-font-specification:Sans;text-indent:0;text-align:start;text-decoration-line:none;text-transform:none;block-progression:tb;marker:none" d="m -411.03313,2260.6114 c -0.1068,-0.01 -0.18125,0.1143 -0.26192,0.1987 -0.1396,0.1092 -0.26671,0.2628 -0.39699,0.402 -0.0791,0.1336 -0.19166,0.1234 -0.28556,0.051 -0.10149,-0.035 -0.22087,-0.065 -0.31185,0.039 -0.0731,0.093 -0.0898,0.3622 -0.19751,0.3274 -0.0827,-0.1422 -0.18201,-0.2603 -0.25242,-0.4275 -0.005,-0.1891 -0.1759,-0.2713 -0.20668,-0.065 -0.081,0.1441 -0.0539,0.1196 -0.0797,0.1768 -0.0672,0.1872 -0.13028,0.407 -0.25725,0.4816 -0.14566,0.1308 0.10827,0.4276 0.17631,0.1873 0.10299,-0.1762 0.14706,-0.4504 0.25449,-0.6095 0.0663,0.1541 0.15091,0.2677 0.23334,0.3963 0.0707,0.127 0.20047,0.2229 0.28325,0.077 0.071,-0.1151 0.10167,-0.3806 0.21725,-0.3515 0.10429,-0.027 0.19632,0.1045 0.29987,0.09 0.0946,0 0.16134,-0.1191 0.23954,-0.1897 0.13857,-0.1106 0.26238,-0.269 0.39966,-0.3847 0.0954,-0.1608 0.24356,-0.1691 0.36002,-0.066 0.15081,0.1071 0.30251,0.2131 0.45879,0.2921 0.0781,0.059 0.11881,0.013 0.10099,-0.1264 0.0313,-0.1987 -0.11086,-0.108 -0.17547,-0.1889 -0.1604,-0.094 -0.31442,-0.2166 -0.47264,-0.3208 -0.0411,0.017 -0.0843,0.01 -0.12549,0.01 z" color="#000" font-family="Sans" font-weight="400" overflow="visible"/><rect width="1" height="1" x="-415" y="2267.362" fill="#34485c" rx="0" ry="0"/><rect width="4" height="1" x="-413" y="2267.362" fill="#e9eded" rx="0" ry="0"/><rect width="1" height="1" x="-415" y="2265.362" fill="#60c5b8" rx="0" ry="0"/><rect width="4" height="1" x="-413" y="2265.362" fill="#e9eded" rx="0" ry="0"/><rect width="1" height="1" x="-415" y="2263.362" fill="#fcd062" rx="0" ry="0"/><rect width="4" height="1" x="-413" y="2263.362" fill="#e9eded" rx="0" ry="0"/><g transform="matrix(.44637 0 0 .44637 -281.216 1724.515)"><path fill="#f8b84e" d="m 21.690613,1037.0707 c -0.819289,0.8193 -0.649896,2.2432 -1.699989,2.7329 -1.050093,0.4896 -2.031993,-0.5554 -3.186233,-0.4544 -1.15424,0.101 -1.939754,1.3006 -3.058923,1.0008 -1.119169,-0.2999 -1.199611,-1.7316 -2.148721,-2.3962 -0.949109,-0.6646 -2.3219785,-0.2505 -2.9865523,-1.1996 -0.6645739,-0.9491 0.1940822,-2.0976 -0.1057983,-3.2167 -0.2998805,-1.1192 -1.6177242,-1.6845 -1.5167413,-2.8387 0.1009829,-1.1542 1.4969621,-1.4821 1.9866283,-2.5322 0.4896663,-1.0501 -0.1565184,-2.3302 0.6627703,-3.1494 0.8192883,-0.8193 2.0993963,-0.1732 3.1494893,-0.6628 1.050093,-0.4897 1.377924,-1.8857 2.532164,-1.9866 1.154241,-0.101 1.719501,1.2168 2.83867,1.5167 1.119169,0.2999 2.267621,-0.5588 3.21673,0.1058 0.94911,0.6646 0.535031,2.0374 1.199605,2.9865 0.664574,0.9492 2.096272,1.0296 2.396153,2.1488 0.29988,1.1191 -0.899786,1.9046 -1.000769,3.0589 -0.100983,1.1542 0.944055,2.1361 0.454388,3.1862 -0.489666,1.0501 -1.913582,0.8807 -2.732871,1.7 z" transform="rotate(-13.58 735.327 2309.79)"/><path fill="#fcd062" d="m 20.471207,1035.8512 c -0.643728,0.6437 -0.510634,1.7625 -1.335709,2.1473 -0.825074,0.3847 -1.596569,-0.4364 -2.503474,-0.3571 -0.906905,0.079 -1.524096,1.022 -2.403445,0.7864 -0.879349,-0.2357 -0.942554,-1.3606 -1.688284,-1.8827 -0.745731,-0.5222 -1.824417,-0.1968 -2.346583,-0.9426 -0.5221664,-0.7457 0.152494,-1.6481 -0.08313,-2.5274 -0.2356212,-0.8794 -1.2710724,-1.3235 -1.1917285,-2.2304 0.079344,-0.9069 1.1761875,-1.1645 1.5609255,-1.9896 0.384739,-0.825 -0.122979,-1.8308 0.52075,-2.4746 0.643728,-0.6437 1.649529,-0.136 2.474604,-0.5207 0.825075,-0.3848 1.082657,-1.4816 1.989562,-1.5609 0.906905,-0.079 1.351039,0.9561 2.230389,1.1917 0.879349,0.2356 1.781706,-0.4391 2.527436,0.083 0.745731,0.5222 0.420383,1.6009 0.942549,2.3466 0.522166,0.7457 1.647075,0.8089 1.882696,1.6883 0.235621,0.8793 -0.706977,1.4965 -0.78632,2.4034 -0.07934,0.9069 0.741759,1.6784 0.35702,2.5035 -0.384739,0.8251 -1.503533,0.692 -2.147261,1.3357 z" transform="rotate(-13.58 735.327 2309.79)"/></g></g><g transform="translate(-292.031 332.031)"><circle cx="24.121" cy="1029.356" r="6.5" fill="#25b39e" transform="translate(-196.621 990.507)"/><circle cx="24.121" cy="1029.356" r="4.52" fill="#60c5b8" transform="translate(-196.621 990.507)"/><path fill="none" stroke="#fff" stroke-linecap="round" stroke-linejoin="round" stroke-width="2.002" d="m -174.99063,2020.2034 1.42322,1.3714 3.55804,-3.4284"/></g></g></g></svg>