<svg width="114" height="88" viewBox="0 0 114 88" fill="none" xmlns="http://www.w3.org/2000/svg">
<path d="M113.849 41.5171C113.845 49.1445 111.723 56.6235 107.715 63.1347C103.708 69.6459 97.9702 74.9379 91.1305 78.4307C90.8227 78.5908 90.5127 78.7444 90.2006 78.8916L90.136 78.9237L89.9132 79.0293C89.7292 79.1189 89.5483 79.2021 89.3611 79.2854C88.1922 79.8167 86.9932 80.2937 85.7641 80.7162C85.0667 80.9573 84.3617 81.1803 83.6492 81.3852L82.7968 81.6189C73.3124 84.1229 63.2429 83.2542 54.3374 79.1637C53.9726 78.9941 53.6077 78.8212 53.2493 78.642L52.6035 78.3219C46.2118 75.0014 40.7899 70.1059 36.8595 64.1063C36.4462 63.4811 36.0523 62.8409 35.6778 62.1858C35.3441 61.616 35.0212 61.0387 34.7091 60.454C31.6756 54.5952 30.098 48.1026 30.1079 41.5171C30.1079 40.7403 30.1295 39.9678 30.1725 39.1996C30.7779 28.4072 35.6064 18.2747 43.6312 10.9571C51.656 3.63957 62.2438 -0.285686 73.1429 0.0162088C84.0419 0.318104 94.3921 4.82333 101.992 12.5737C109.592 20.324 113.843 30.708 113.839 41.5171H113.849Z" fill="url(#paint0_linear)"/>
<path d="M63.756 40.0414C63.756 40.0414 54.3923 35.6401 53.5786 29.5838C52.7649 23.5276 53.3364 17.7402 58.0022 16.1205C58.0022 16.1205 60.9534 6.79288 71.4149 10.5412C81.8765 14.2896 80.2265 25.5442 85.9449 26.8918C91.6632 28.2394 102.341 22.5641 104.379 29.4878C106.416 36.4115 99.716 35.989 95.2634 41.866C90.8108 47.743 97.6883 50.8287 96.429 54.8747C95.1698 58.9208 90.4136 61.7024 90.4136 61.7024L63.756 40.0414Z" fill="url(#paint1_linear)"/>
<path d="M50.9342 53.3255L53.5787 60.454H53.866L58.0022 41.866C55.3901 44.1355 50.9342 53.3255 50.9342 53.3255Z" fill="url(#paint2_linear)"/>
<path d="M46.2911 63.1589L44.6153 63.9943C42.5359 65.2299 39.4297 64.8778 39.4297 64.8778C41.1087 66.7504 50.5629 68.8694 53.2203 68.815L53.7111 62.1826H47.8216L46.2911 63.1589Z" fill="url(#paint3_linear)"/>
<path d="M90.2006 78.882L90.136 78.914L89.9132 79.0196C89.7292 79.1093 89.5484 79.1925 89.3611 79.2757C88.1922 79.8071 86.9933 80.284 85.7641 80.7066C85.0667 80.9477 84.3617 81.1707 83.6492 81.3756L82.7968 81.6092C73.3125 84.1132 63.243 83.2446 54.3375 79.1541C53.9726 78.9844 53.6078 78.8116 53.2493 78.6323L52.6036 78.3122C52.694 75.5658 52.8328 72.2784 53.0362 68.8117C53.1654 66.6447 53.3236 64.4072 53.5109 62.1857C53.5593 61.6063 53.611 61.0302 53.6626 60.454C54.4247 52.2659 55.6452 44.6732 57.6019 42.2596L57.6309 42.2276C57.8794 41.8887 58.2298 41.6365 58.6319 41.5074C61.4572 40.8416 63.4494 40.6176 63.7626 40.0414C64.0758 39.4652 63.7626 38.3321 63.7626 38.3321L64.3244 38.2552C65.1413 38.1336 66.7267 37.8775 68.2281 37.4934C68.2376 37.4963 68.2477 37.4963 68.2572 37.4934C69.5842 37.1509 70.8403 36.7092 71.4538 36.1778L72.713 39.4972C72.713 39.4972 82.1833 38.3096 85.8804 41.8787C85.9031 41.8954 85.9237 41.9147 85.9417 41.9364C85.9807 41.9713 86.0174 42.0087 86.0515 42.0484C86.2714 42.279 86.4672 42.531 86.6359 42.8006C87.8403 44.7212 88.6927 52.4292 89.2836 60.7901C89.4192 62.7107 89.5419 64.6953 89.6485 66.6383C89.8939 71.126 90.0779 75.473 90.2006 78.882Z" fill="url(#paint4_linear)"/>
<path opacity="0.15" d="M90.1359 78.9236L89.9131 79.0292C89.7291 79.1189 89.5482 79.2021 89.361 79.2853C88.1921 79.8167 86.9931 80.2936 85.764 80.7162C85.0666 80.9573 84.3616 81.1803 83.6491 81.3852C79.2869 76.779 77.5562 70.7995 77.5562 70.7995L89.6419 66.6383L90.1359 78.9236Z" fill="black"/>
<path d="M85.877 41.866C90.2521 46.1233 91.2047 55.0604 90.3974 61.712C89.5902 68.3636 88.092 74.5927 84.9794 74.4007C81.8667 74.2086 71.0952 66.8016 66.9332 62.7619L69.3645 58.1365L78.16 61.7696V52.0867L85.877 41.866Z" fill="url(#paint5_linear)"/>
<path d="M85.877 41.866C90.2521 46.1233 91.2047 55.0604 90.3974 61.712C89.5902 68.3636 88.092 74.5927 84.9794 74.4007C81.8667 74.2086 71.0952 66.8016 66.9332 62.7619L69.3645 58.1365L78.16 61.7696V52.0867L85.877 41.866Z" fill="url(#paint6_linear)"/>
<g filter="url(#filter0_d)">
<path d="M63.2491 60.454H22.8914V62.1857H63.2491V60.454Z" fill="url(#paint7_linear)"/>
<path d="M45.6905 39.1995H15L22.8914 60.454H53.5786L45.6905 39.1995Z" fill="url(#paint8_linear)"/>
</g>
<path d="M32.1066 62.1857C32.1066 62.1857 37.402 64.8137 40.7664 64.8777C44.1309 64.9418 47.8248 62.1857 47.8248 62.1857H32.1066Z" fill="url(#paint9_linear)"/>
<path d="M69.3645 58.1365C69.3645 58.1365 64.7085 55.8062 62.7034 55.5501C60.6982 55.294 54.473 60.454 54.473 60.454H63.2555L66.9429 62.7619L69.3645 58.1365Z" fill="url(#paint10_linear)"/>
<path d="M71.0598 30.9282C71.0829 32.681 71.2123 34.4308 71.4473 36.1682C69.3647 37.3302 66.9269 37.9544 64.318 38.2584L64.1662 36.1682L64.0758 34.8878V34.8462C63.5729 34.835 63.0771 34.7263 62.6163 34.5261C59.465 33.1785 58.7869 26.5909 58.7869 26.5909C60.0494 26.5397 61.6929 24.283 61.6929 24.283C62.6131 25.6786 66.8817 28.3738 69.3582 27.6504C71.8348 26.927 71.641 25.1953 71.641 25.1953C72.089 25.3825 72.4764 25.6881 72.7611 26.0787C73.0458 26.4693 73.2168 26.93 73.2555 27.4103C73.3879 29.1005 71.0598 30.9282 71.0598 30.9282Z" fill="url(#paint11_linear)"/>
<path opacity="0.15" d="M68.9449 32.788C68.3605 33.7675 65.716 35.3263 64.1694 36.1746L64.079 34.8942C64.1758 34.8942 64.2695 34.8622 64.3599 34.843C65.6226 34.6214 66.8345 34.1758 67.9375 33.5274C67.9507 33.5223 67.9627 33.5147 67.973 33.505C68.3045 33.3107 68.615 33.0833 68.8997 32.8264L68.9449 32.788Z" fill="black"/>
<path opacity="0.15" d="M74.5307 60.2748L81.3824 63.0532L78.1535 60.7453V52.1027C78.1535 52.1027 77.1429 59.6122 74.5307 60.2748Z" fill="black"/>
<defs>
<filter id="filter0_d" x="0" y="24.1995" width="88.2491" height="62.9862" filterUnits="userSpaceOnUse" color-interpolation-filters="sRGB">
<feFlood flood-opacity="0" result="BackgroundImageFix"/>
<feColorMatrix in="SourceAlpha" type="matrix" values="0 0 0 0 0 0 0 0 0 0 0 0 0 0 0 0 0 0 127 0"/>
<feOffset dx="5" dy="5"/>
<feGaussianBlur stdDeviation="10"/>
<feColorMatrix type="matrix" values="0 0 0 0 0 0 0 0 0 0 0 0 0 0 0 0 0 0 0.2 0"/>
<feBlend mode="normal" in2="BackgroundImageFix" result="effect1_dropShadow"/>
<feBlend mode="normal" in="SourceGraphic" in2="effect1_dropShadow" result="shape"/>
</filter>
<linearGradient id="paint0_linear" x1="72.1502" y1="4.50807" x2="70.7424" y2="86.3316" gradientUnits="userSpaceOnUse">
<stop stop-color="white" stop-opacity="0"/>
<stop offset="1" stop-color="#64B5F6" stop-opacity="0.6"/>
</linearGradient>
<linearGradient id="paint1_linear" x1="53.2719" y1="35.6753" x2="104.76" y2="35.6753" gradientUnits="userSpaceOnUse">
<stop stop-color="#EF9A9A"/>
<stop offset="1" stop-color="#D81B60"/>
</linearGradient>
<linearGradient id="paint2_linear" x1="54.0856" y1="51.8978" x2="52.559" y2="69.4063" gradientUnits="userSpaceOnUse">
<stop stop-color="#7E57C2"/>
<stop offset="1" stop-color="#4527A0"/>
</linearGradient>
<linearGradient id="paint3_linear" x1="4322.54" y1="1600.88" x2="4307.63" y2="1965.86" gradientUnits="userSpaceOnUse">
<stop stop-color="#7E57C2"/>
<stop offset="1" stop-color="#4527A0"/>
</linearGradient>
<linearGradient id="paint4_linear" x1="12894.6" y1="9414.13" x2="15510" y2="14251.9" gradientUnits="userSpaceOnUse">
<stop stop-color="#7E57C2"/>
<stop offset="1" stop-color="#4527A0"/>
</linearGradient>
<linearGradient id="paint5_linear" x1="8851.44" y1="6190.44" x2="11173.2" y2="10090.9" gradientUnits="userSpaceOnUse">
<stop stop-color="#7E57C2"/>
<stop offset="1" stop-color="#4527A0"/>
</linearGradient>
<linearGradient id="paint6_linear" x1="80.7463" y1="45.4767" x2="77.1215" y2="75.2982" gradientUnits="userSpaceOnUse">
<stop offset="0.14" stop-color="#7E57C2" stop-opacity="0"/>
<stop offset="0.26" stop-color="#724DBB" stop-opacity="0.21"/>
<stop offset="0.48" stop-color="#5F3DAF" stop-opacity="0.55"/>
<stop offset="0.66" stop-color="#5131A7" stop-opacity="0.79"/>
<stop offset="0.81" stop-color="#482AA2" stop-opacity="0.94"/>
<stop offset="0.91" stop-color="#4527A0"/>
</linearGradient>
<linearGradient id="paint7_linear" x1="22.8914" y1="61.3182" x2="63.2491" y2="61.3182" gradientUnits="userSpaceOnUse">
<stop stop-color="#D2D4D5"/>
<stop offset="1" stop-color="#AAACAE"/>
</linearGradient>
<linearGradient id="paint8_linear" x1="346.39" y1="2659.88" x2="2630.07" y2="5278.95" gradientUnits="userSpaceOnUse">
<stop stop-color="#D2D4D5"/>
<stop offset="1" stop-color="#AAACAE"/>
</linearGradient>
<linearGradient id="paint9_linear" x1="33.1075" y1="59.2953" x2="45.9752" y2="64.8594" gradientUnits="userSpaceOnUse">
<stop stop-color="#FFF8E1"/>
<stop offset="1" stop-color="#FFCC80"/>
</linearGradient>
<linearGradient id="paint10_linear" x1="4995.5" y1="1863.4" x2="5323.87" y2="2223.46" gradientUnits="userSpaceOnUse">
<stop stop-color="#FFF8E1"/>
<stop offset="1" stop-color="#FFCC80"/>
</linearGradient>
<linearGradient id="paint11_linear" x1="5102.84" y1="2044.3" x2="5391.12" y2="2590.16" gradientUnits="userSpaceOnUse">
<stop stop-color="#FFF8E1"/>
<stop offset="1" stop-color="#FFCC80"/>
</linearGradient>
</defs>
</svg>
