<svg width="121" height="80" viewBox="0 0 121 80" fill="none" xmlns="http://www.w3.org/2000/svg">
<path d="M120.299 39.9998C120.295 47.3508 118.284 54.5588 114.486 60.834C110.688 67.1092 105.25 72.2093 98.7674 75.5756C98.388 75.7761 98.0024 75.9674 97.6137 76.1525C97.4393 76.2389 97.2679 76.3191 97.0904 76.3993C95.9826 76.9114 94.8463 77.3711 93.6813 77.7783C92.7633 78.1022 91.8207 78.3953 90.869 78.6482C81.8801 81.0615 72.3366 80.2243 63.8963 76.2821C63.5505 76.1186 63.2047 75.952 62.8651 75.7792C56.5458 72.5927 51.1851 67.7629 47.3369 61.789C43.4888 55.8151 41.2927 48.9137 40.9756 41.798C40.6585 34.6822 42.2319 27.6101 45.5332 21.3124C48.8345 15.0147 53.744 9.71991 59.7544 5.97498C65.7649 2.23005 72.6582 0.170862 79.7222 0.0101817C86.7862 -0.150498 93.7646 1.59315 99.9365 5.06098C106.108 8.52881 111.25 13.595 114.829 19.7362C118.409 25.8773 120.297 32.8707 120.299 39.9936V39.9998Z" fill="url(#paint0_linear)"/>
<path d="M65.0623 64.6918L60.6801 57.7908C60.6801 57.7908 72.8199 43.6431 74.0348 42.8071C74.0348 42.8071 67.9113 53.1633 65.0623 64.6918Z" fill="url(#paint1_linear)"/>
<path d="M60.6802 57.7908L52.4176 65.1947L37.2176 57.7908L25.5888 58.4324C25.5888 58.4324 32.8323 60.9004 34.8704 60.7986L36.9115 60.6968C36.9115 60.6968 49.3941 72.83 52.2646 73.7555C55.1351 74.681 64.5636 67.4251 64.5636 67.4251L65.1113 64.7134L60.6802 57.7908Z" fill="url(#paint2_linear)"/>
<path d="M83.4786 41.132C82.3304 41.6924 81.0958 42.0513 79.8278 42.1932C78.362 42.4153 76.1342 41.5947 76.1342 41.5947C77.8173 40.2589 77.4256 37.1092 77.4256 37.1092L77.4623 37.0907C79.2586 36.9518 80.7612 35.9245 81.8108 34.9312C81.4314 37.6274 83.4786 41.132 83.4786 41.132Z" fill="url(#paint3_linear)"/>
<path d="M83.4787 31.0997V32.9507C83.0003 33.6697 82.4418 34.3312 81.8139 34.9219C80.7643 35.9184 79.2617 36.9457 77.4654 37.0814C76.6494 37.1443 75.8298 37.0231 75.0662 36.7267C70.1698 34.8757 73.6126 25.0809 73.6126 25.0809C75.1672 21.0951 82.2056 23.0232 82.2056 23.0232C83.1482 24.1554 83.3287 27.3175 83.292 27.626C83.1351 28.0594 82.9298 28.4734 82.68 28.86C82.68 28.86 84.0173 27.589 84.4763 28.4343C84.9353 29.2795 83.4787 31.0997 83.4787 31.0997Z" fill="url(#paint4_linear)"/>
<path d="M83.4786 32.9568V31.1059C83.4786 31.1059 84.9322 29.3012 84.4731 28.4497C84.0141 27.5983 82.6768 28.8754 82.6768 28.8754C82.9266 28.4889 83.132 28.0749 83.2888 27.6414C83.3256 27.3329 83.1726 24.3498 82.2025 23.0387C82.2025 23.0387 75.164 21.1106 73.6094 25.0963C73.6094 25.0963 71.5958 24.5812 69.8606 22.1656C67.0238 18.2138 70.4115 17.7295 73.7685 18.4914C77.8417 19.4169 81.924 16.3813 86.5908 19.4663C91.2576 22.5513 87.0743 29.5634 83.4786 32.9568Z" fill="#262F72"/>
<g filter="url(#filter0_d)">
<path d="M51.4444 15.7335H11.7382C10.7782 15.7335 10 16.518 10 17.4857V54.3942C10 55.362 10.7782 56.1465 11.7382 56.1465H51.4444C52.4044 56.1465 53.1826 55.362 53.1826 54.3942V17.4857C53.1826 16.518 52.4044 15.7335 51.4444 15.7335Z" fill="white"/>
</g>
<path d="M16.613 23.0572C16.5028 23.1829 16.3612 23.2766 16.203 23.3286C16.0141 23.3947 15.8153 23.4271 15.6154 23.4243C15.408 23.429 15.203 23.3779 15.0217 23.2762C14.85 23.1756 14.7124 23.0251 14.627 22.8443C14.5297 22.636 14.4805 22.4082 14.4831 22.1779V21.999C14.4776 21.7648 14.5225 21.5322 14.6147 21.3172C14.694 21.1349 14.8263 20.9811 14.9942 20.8761C15.1973 20.7652 15.4268 20.7132 15.6575 20.7257C15.8881 20.7382 16.1108 20.8148 16.3009 20.947C16.4834 21.1153 16.5933 21.349 16.6069 21.598H16.0836C16.0718 21.4722 16.0152 21.355 15.9245 21.2679C15.8283 21.1936 15.7089 21.1564 15.5879 21.163C15.5063 21.1584 15.4249 21.175 15.3515 21.2112C15.2781 21.2474 15.2151 21.3019 15.1686 21.3697C15.0612 21.5565 15.0112 21.7712 15.0248 21.9867V22.1533C15.0115 22.3703 15.0661 22.5861 15.1809 22.7703C15.2338 22.8406 15.3031 22.8968 15.3825 22.934C15.462 22.9711 15.5494 22.9879 15.6368 22.9831C15.7918 22.9968 15.946 22.9504 16.0683 22.8536V22.4001H15.5787V22.0021H16.6069L16.613 23.0572Z" fill="#64B5F6"/>
<path d="M48.0781 20.7219H19.9426C19.5995 20.7219 19.3214 21.0023 19.3214 21.3481V23.6249C19.3214 23.9707 19.5995 24.2511 19.9426 24.2511H48.0781C48.4212 24.2511 48.6993 23.9707 48.6993 23.6249V21.3481C48.6993 21.0023 48.4212 20.7219 48.0781 20.7219Z" fill="#E7EEF2"/>
<path d="M48.6993 26.2439H19.3214V26.8609H48.6993V26.2439Z" fill="#BBDEFB"/>
<path d="M48.6993 27.6322H19.3214V28.2492H48.6993V27.6322Z" fill="#E7E8E9"/>
<path d="M48.6993 29.0204H19.3214V29.6374H48.6993V29.0204Z" fill="#E7E8E9"/>
<path d="M48.6993 30.4086H19.3214V31.0256H48.6993V30.4086Z" fill="#E7E8E9"/>
<path d="M48.6993 33.0062H19.3214V33.6232H48.6993V33.0062Z" fill="#BBDEFB"/>
<path d="M48.6993 34.3944H19.3214V35.0114H48.6993V34.3944Z" fill="#E7E8E9"/>
<path d="M48.6993 35.7827H19.3214V36.3996H48.6993V35.7827Z" fill="#E7E8E9"/>
<path d="M48.6993 37.1709H19.3214V37.7879H48.6993V37.1709Z" fill="#E7E8E9"/>
<path d="M48.6993 39.6913H19.3214V40.3083H48.6993V39.6913Z" fill="#BBDEFB"/>
<path d="M48.6993 41.0796H19.3214V41.6966H48.6993V41.0796Z" fill="#E7E8E9"/>
<path d="M48.6993 42.4677H19.3214V43.0847H48.6993V42.4677Z" fill="#E7E8E9"/>
<path d="M48.6993 43.856H19.3214V44.473H48.6993V43.856Z" fill="#E7E8E9"/>
<path d="M48.6993 46.3764H19.3214V46.9934H48.6993V46.3764Z" fill="#BBDEFB"/>
<path d="M48.6993 47.7647H19.3214V48.3817H48.6993V47.7647Z" fill="#E7E8E9"/>
<path d="M48.6993 49.1529H19.3214V49.7699H48.6993V49.1529Z" fill="#E7E8E9"/>
<path d="M48.6993 50.5411H19.3214V51.1581H48.6993V50.5411Z" fill="#E7E8E9"/>
<path d="M94.0638 56.0355C96.157 62.3165 97.7085 69.5877 98.7674 75.5756C98.3879 75.7762 98.0023 75.9674 97.6137 76.1525C97.4392 76.2389 97.2679 76.3191 97.0904 76.3993C95.9826 76.9114 94.8462 77.3711 93.6813 77.7783C92.7632 78.1022 91.8207 78.3953 90.869 78.6483C81.8801 81.0615 72.3366 80.2243 63.8963 76.2821C63.5505 76.1186 63.2047 75.952 62.865 75.7793C63.4771 72.611 64.2054 68.8874 65.0592 64.695C65.3693 63.1751 65.6947 61.5936 66.0354 59.9503C67.7889 51.5314 70.3044 46.9472 72.3823 44.4638L72.4037 44.4391C72.7984 43.967 73.2259 43.5237 73.6828 43.1126C73.6956 43.0976 73.71 43.0842 73.7257 43.0725C73.8297 42.9799 73.9338 42.8935 74.0317 42.8102C75.2833 41.7829 76.1341 41.5948 76.1341 41.5948L76.2106 41.6225H76.2534C76.9181 41.8868 77.6149 42.0601 78.3252 42.1377H78.4445H78.4629C78.9165 42.1815 79.373 42.1887 79.8277 42.1593H79.8553C81.1183 42.0782 82.3486 41.7202 83.4602 41.1104C84.7637 41.545 85.9915 42.1832 87.0988 43.0015C90.2631 45.343 96.6375 53.9284 96.6375 53.9284L94.0638 56.0355Z" fill="url(#paint5_linear)"/>
<path d="M105.72 67.7583C105.702 68.6159 104.928 70.3558 103.795 72.4659C102.198 73.6278 100.516 74.6673 98.7644 75.5756C98.385 75.7761 97.9994 75.9674 97.6107 76.1525C97.4363 76.2389 97.2649 76.3191 97.0874 76.3993C95.9796 76.9114 94.8433 77.371 93.6784 77.7783L96.6345 68.2797L88.984 60.1816L94.0609 56.0354L96.6345 53.9346C96.6345 53.9346 105.8 64.442 105.72 67.7583Z" fill="url(#paint6_linear)"/>
<defs>
<filter id="filter0_d" x="0" y="9.73346" width="63.1826" height="60.413" filterUnits="userSpaceOnUse" color-interpolation-filters="sRGB">
<feFlood flood-opacity="0" result="BackgroundImageFix"/>
<feColorMatrix in="SourceAlpha" type="matrix" values="0 0 0 0 0 0 0 0 0 0 0 0 0 0 0 0 0 0 127 0"/>
<feOffset dy="4"/>
<feGaussianBlur stdDeviation="5"/>
<feColorMatrix type="matrix" values="0 0 0 0 0 0 0 0 0 0 0 0 0 0 0 0 0 0 0.15 0"/>
<feBlend mode="normal" in2="BackgroundImageFix" result="effect1_dropShadow"/>
<feBlend mode="normal" in="SourceGraphic" in2="effect1_dropShadow" result="shape"/>
</filter>
<linearGradient id="paint0_linear" x1="80.7802" y1="4.344" x2="79.4008" y2="83.1889" gradientUnits="userSpaceOnUse">
<stop stop-color="white" stop-opacity="0"/>
<stop offset="1" stop-color="#64B5F6" stop-opacity="0.6"/>
</linearGradient>
<linearGradient id="paint1_linear" x1="68.3214" y1="41.3387" x2="65.9894" y2="62.698" gradientUnits="userSpaceOnUse">
<stop stop-color="#42A5F5"/>
<stop offset="1" stop-color="#1565C0"/>
</linearGradient>
<linearGradient id="paint2_linear" x1="41.8385" y1="63.8311" x2="67.2452" y2="67.1713" gradientUnits="userSpaceOnUse">
<stop stop-color="#FFE082"/>
<stop offset="1" stop-color="#FFA726"/>
</linearGradient>
<linearGradient id="paint3_linear" x1="5711.64" y1="1542.12" x2="5713.45" y2="1403.42" gradientUnits="userSpaceOnUse">
<stop stop-color="#FFE082"/>
<stop offset="1" stop-color="#FFA726"/>
</linearGradient>
<linearGradient id="paint4_linear" x1="9087.1" y1="2470.17" x2="9567.78" y2="2470.17" gradientUnits="userSpaceOnUse">
<stop stop-color="#FFE082"/>
<stop offset="1" stop-color="#FFA726"/>
</linearGradient>
<linearGradient id="paint5_linear" x1="26033.2" y1="9153.62" x2="29608.4" y2="12589.9" gradientUnits="userSpaceOnUse">
<stop stop-color="#42A5F5"/>
<stop offset="1" stop-color="#1565C0"/>
</linearGradient>
<linearGradient id="paint6_linear" x1="13949.2" y1="7433.79" x2="13704.7" y2="5907.39" gradientUnits="userSpaceOnUse">
<stop stop-color="#FFE082"/>
<stop offset="1" stop-color="#FFA726"/>
</linearGradient>
</defs>
</svg>
