<svg xmlns="http://www.w3.org/2000/svg" viewBox="0 0 64 64"><path fill="#03875b" d="M35.92,10.5v.14c-.92.14-1.83.23-2.75.28-.21,0-.41.01-.61.01-.13.01-.26.01-.39.01-.39,0-.78,0-1.17-.02V5h7C36.69,6.57,35.65,8.26,35.92,10.5Z"/><path fill="#049661" d="M54,42.1c0,13.69-12.5,21.79-26.71,19.52A21.783,21.783,0,0,1,24.58,61c-.2-.06-.39-.12-.58-.19A19.938,19.938,0,0,1,10.01,41.53,25.382,25.382,0,0,1,22.67,20.46,10.412,10.412,0,0,0,27,16V14.52a23.418,23.418,0,0,0,10,0V16a10.385,10.385,0,0,0,4.29,4.44A25.412,25.412,0,0,1,53.9,40c.03.34.06.67.07,1C53.99,41.37,54,41.73,54,42.1Z"/><path fill="#f99d23" d="M18.86,55H18v2a1,1,0,0,1-2,0V55H14v2a1,1,0,0,1-2,0V55H10v2a1,1,0,0,1-2,0V55H7.14A2.142,2.142,0,0,0,5,57.14v1.72A2.142,2.142,0,0,0,7.14,61H18.86A2.142,2.142,0,0,0,21,58.86V57.14A2.142,2.142,0,0,0,18.86,55Z"/><rect width="15" height="6" x="5" y="55" fill="#fbb03b" rx="2.14"/><path fill="#e27817" d="M9 58a1 1 0 001-1V55H8v2A1 1 0 009 58zM13 58a1 1 0 001-1V55H12v2A1 1 0 0013 58zM17 58a1 1 0 001-1V55H16v2A1 1 0 0017 58z"/><path fill="#f99d23" d="M16.86,49H16v2a1,1,0,0,1-2,0V49H12v2a1,1,0,0,1-2,0V49H8v2a1,1,0,0,1-2,0V49H5.14A2.142,2.142,0,0,0,3,51.14v1.72A2.142,2.142,0,0,0,5.14,55H16.86A2.142,2.142,0,0,0,19,52.86V51.14A2.142,2.142,0,0,0,16.86,49Z"/><rect width="15" height="6" x="3" y="49" fill="#fbb03b" rx="2.14"/><path fill="#e27817" d="M7 52a1 1 0 001-1V49H6v2A1 1 0 007 52zM11 52a1 1 0 001-1V49H10v2A1 1 0 0011 52zM15 52a1 1 0 001-1V49H14v2A1 1 0 0015 52z"/><path fill="#f99d23" d="M18.86,43H18v2a1,1,0,0,1-2,0V43H14v2a1,1,0,0,1-2,0V43H10v2a1,1,0,0,1-2,0V43H7.14A2.142,2.142,0,0,0,5,45.14v1.72A2.142,2.142,0,0,0,7.14,49H18.86A2.142,2.142,0,0,0,21,46.86V45.14A2.142,2.142,0,0,0,18.86,43Z"/><rect width="15" height="6" x="5" y="43" fill="#fbb03b" rx="2.14"/><path fill="#e27817" d="M9 46a1 1 0 001-1V43H8v2A1 1 0 009 46zM13 46a1 1 0 001-1V43H12v2A1 1 0 0013 46zM17 46a1 1 0 001-1V43H16v2A1 1 0 0017 46z"/><path fill="#f99d23" d="M16.86,37H16v2a1,1,0,0,1-2,0V37H12v2a1,1,0,0,1-2,0V37H8v2a1,1,0,0,1-2,0V37H5.14A2.142,2.142,0,0,0,3,39.14v1.72A2.142,2.142,0,0,0,5.14,43H16.86A2.142,2.142,0,0,0,19,40.86V39.14A2.142,2.142,0,0,0,16.86,37Z"/><rect width="15" height="6" x="3" y="37" fill="#fbb03b" rx="2.14"/><path fill="#e27817" d="M7 40a1 1 0 001-1V37H6v2A1 1 0 007 40zM11 40a1 1 0 001-1V37H10v2A1 1 0 0011 40zM15 40a1 1 0 001-1V37H14v2A1 1 0 0015 40z"/><circle cx="32" cy="29" r="9" fill="#0eaa76"/><path fill="#038e48" d="M34,28a1,1,0,0,0,1-1v-.146a2.849,2.849,0,0,0-2-2.709V23a1,1,0,0,0-2,0v1.145a2.844,2.844,0,0,0-.422,5.262l1.949.975A.854.854,0,0,1,32.146,32h-.292A.855.855,0,0,1,31,31.146V31a1,1,0,0,0-2,0v.146a2.849,2.849,0,0,0,2,2.709V35a1,1,0,0,0,2,0V33.855a2.844,2.844,0,0,0,.422-5.262l-1.949-.975A.854.854,0,0,1,31.854,26h.292a.855.855,0,0,1,.854.854V27A1,1,0,0,0,34,28Z"/><path fill="#03875b" d="M32.19,10.6a2.622,2.622,0,0,1-.02.32v.02a25.7,25.7,0,0,1-4.19-.31A8.4,8.4,0,0,0,26.7,6.39,11.7,11.7,0,0,0,24,3h8a9.855,9.855,0,0,1,.73,2A8.651,8.651,0,0,1,32.19,10.6Z"/><path fill="#057c51" d="M33.19,10.6a2.622,2.622,0,0,1-.02.32v.02c-.2,0-.41,0-.61-.01-.13,0-.26,0-.39-.01a2.622,2.622,0,0,0,.02-.32A8.651,8.651,0,0,0,32.73,5h1A8.651,8.651,0,0,1,33.19,10.6Z"/><path fill="#129e6b" d="M39,12.47a2.008,2.008,0,0,1-1.55,1.95c-.15.03-.3.07-.45.1a23.418,23.418,0,0,1-10,0c-.15-.03-.3-.07-.45-.1A2.008,2.008,0,0,1,25,12.47a1.978,1.978,0,0,1,1.99-1.97,2.308,2.308,0,0,1,.37.03c.21.04.41.07.62.1a25.708,25.708,0,0,0,3.02.29c.39.02.78.02,1.17.02a26.325,26.325,0,0,0,3.75-.3c.24-.03.48-.07.72-.11A1.988,1.988,0,0,1,39,12.47Z"/><path fill="#047a4f" d="M37,14.52v1a23.418,23.418,0,0,1-10,0v-1A23.418,23.418,0,0,0,37,14.52Z"/><rect width="16" height="4" x="25" y="53" fill="#21aa79"/><rect width="16" height="4" x="45" y="53" fill="#21aa79"/><rect width="16" height="4" x="25" y="57" fill="#26bc8a"/><rect width="16" height="4" x="45" y="57" fill="#26bc8a"/><rect width="36" height="12" x="25" y="41" fill="#26bc8a"/><path fill="#05996b" d="M29 41a4 4 0 01-4 4V41zM25 49a4 4 0 014 4H25z"/><path fill="#039367" d="M33 48H31a1 1 0 010-2h2a1 1 0 010 2zM55 48H53a1 1 0 010-2h2a1 1 0 010 2z"/><path fill="#05996b" d="M57 41a4 4 0 004 4V41zM61 49a4 4 0 00-4 4h4z"/><circle cx="43" cy="47" r="6" fill="#05996b"/><rect width="4" height="12" x="41" y="41" fill="#ccc"/><rect width="4" height="8" x="41" y="53" fill="#c1c1c1"/></svg>