<svg xmlns="http://www.w3.org/2000/svg" viewBox="0 0 64 64"><g data-name="earth-pin-locations"><path fill="#91dc5a" d="M34.82 7.15A26.991 26.991 0 0 1 48.45 55.4L49 51l-6-3-3-7V33l-2-4-7 1-5-4-2-3V19l5-2 4-5zM21 28l-1 8-6 7L8.95 48.05a26.959 26.959 0 0 1 2.86-31.96L14 19l2 6zM36 57l3.06 3.06A26.551 26.551 0 0 1 32 61a26.893 26.893 0 0 1-20.09-8.98L16 51l1-4 3-5 6-2 5 4 2 7-2 4z"/><path fill="#2488ff" d="M49,51l-.55,4.4a26.769,26.769,0,0,1-9.39,4.66L36,57l-5-2,2-4-2-7-5-4-6,2-3,5-1,4-4.09,1.02a25.924,25.924,0,0,1-2.96-3.97L14,43l6-7,1-8-5-3-2-6-2.19-2.91A26.861,26.861,0,0,1,32,7a26.22,26.22,0,0,1,2.82.15L33,12l-4,5-5,2v4l2,3,5,4,7-1,2,4v8l3,7Z"/><ellipse cx="46" cy="24.5" fill="#d80027" rx="5" ry="2.5"/><path fill="#ff5023" d="M46,3a8,8,0,0,1,8,8c0,4.42-8,13-8,13s-8-8.58-8-13A8,8,0,0,1,46,3Z"/><circle cx="46" cy="11" r="3" fill="#ffda44"/></g></svg>