<svg viewBox="0 0 300 300" xmlns="http://www.w3.org/2000/svg" style="width: 100%; height: 100%; background-color: rgb(255, 255, 255);"><svg><g transform="translate(9, 9)scale(0.95)" fill="none"><svg width="300" height="300"><style>.background-color{ fill: transparent; }.dot-color{ fill: #000000; }.corners-square-color-0-0{ fill: #000000; }.corners-dot-color-0-0{ fill: #000000; }.corners-square-color-1-0{ fill: #000000; }.corners-dot-color-1-0{ fill: #000000; }.corners-square-color-0-1{ fill: #000000; }.corners-dot-color-0-1{ fill: #000000; }</style><defs/><g class="dot-color"><path d="M 5 95v 10h 10v -5a 5 5, 0, 0, 0, -5 -5" transform="rotate(-90,10,100)"/><rect x="5" y="105" width="10" height="10" transform="rotate(0,10,110)"/><path d="M 5 135v 10h 10v -5a 5 5, 0, 0, 0, -5 -5" transform="rotate(-90,10,140)"/><rect x="5" y="145" width="10" height="10" transform="rotate(0,10,150)"/><path d="M 5 175v 5a 5 5, 0, 0, 0, 5 5h 5v -5a 5 5, 0, 0, 0, -5 -5" transform="rotate(90,10,180)"/><path d="M 5 195v 10h 10v -5a 5 5, 0, 0, 0, -5 -5" transform="rotate(-90,10,200)"/><path d="M 5 205v 10h 10v -5a 5 5, 0, 0, 0, -5 -5" transform="rotate(90,10,210)"/><rect x="15" y="95" width="10" height="10" transform="rotate(0,20,100)"/><rect x="15" y="105" width="10" height="10" transform="rotate(0,20,110)"/><rect x="15" y="135" width="10" height="10" transform="rotate(0,20,140)"/><rect x="15" y="145" width="10" height="10" transform="rotate(0,20,150)"/><path d="M 15 165v 10h 10v -5a 5 5, 0, 0, 0, -5 -5" transform="rotate(-90,20,170)"/><path d="M 15 195v 10h 10v -5a 5 5, 0, 0, 0, -5 -5" transform="rotate(90,20,200)"/><path d="M 25 85v 5a 5 5, 0, 0, 0, 5 5h 5v -5a 5 5, 0, 0, 0, -5 -5" transform="rotate(90,30,90)"/><rect x="25" y="105" width="10" height="10" transform="rotate(0,30,110)"/><rect x="25" y="145" width="10" height="10" transform="rotate(0,30,150)"/><rect x="25" y="165" width="10" height="10" transform="rotate(0,30,170)"/><rect x="25" y="175" width="10" height="10" transform="rotate(0,30,180)"/><rect x="25" y="185" width="10" height="10" transform="rotate(0,30,190)"/><rect x="35" y="105" width="10" height="10" transform="rotate(0,40,110)"/><rect x="35" y="115" width="10" height="10" transform="rotate(0,40,120)"/><rect x="35" y="125" width="10" height="10" transform="rotate(0,40,130)"/><rect x="35" y="145" width="10" height="10" transform="rotate(0,40,150)"/><path d="M 35 185v 10h 10v -5a 5 5, 0, 0, 0, -5 -5" transform="rotate(90,40,190)"/><path d="M 45 85v 10h 10v -5a 5 5, 0, 0, 0, -5 -5" transform="rotate(-90,50,90)"/><rect x="45" y="105" width="10" height="10" transform="rotate(0,50,110)"/><path d="M 45 125v 10h 10v -5a 5 5, 0, 0, 0, -5 -5" transform="rotate(90,50,130)"/><path d="M 45 145v 10h 10v -5a 5 5, 0, 0, 0, -5 -5" transform="rotate(90,50,150)"/><path d="M 45 165v 10h 10v -5a 5 5, 0, 0, 0, -5 -5" transform="rotate(-90,50,170)"/><rect x="45" y="175" width="10" height="10" transform="rotate(0,50,180)"/><path d="M 45 205v 5a 5 5, 0, 0, 0, 5 5h 5v -5a 5 5, 0, 0, 0, -5 -5" transform="rotate(90,50,210)"/><rect x="55" y="85" width="10" height="10" transform="rotate(0,60,90)"/><rect x="55" y="105" width="10" height="10" transform="rotate(0,60,110)"/><path d="M 55 115v 10h 10v -5a 5 5, 0, 0, 0, -5 -5" transform="rotate(90,60,120)"/><path d="M 55 135v 5a 5 5, 0, 0, 0, 5 5h 5v -5a 5 5, 0, 0, 0, -5 -5" transform="rotate(90,60,140)"/><path d="M 55 175v 10h 10v -5a 5 5, 0, 0, 0, -5 -5" transform="rotate(90,60,180)"/><path d="M 55 195v 5a 5 5, 0, 0, 0, 5 5h 5v -5a 5 5, 0, 0, 0, -5 -5" transform="rotate(90,60,200)"/><path d="M 65 85v 10h 10v -5a 5 5, 0, 0, 0, -5 -5" transform="rotate(90,70,90)"/><path d="M 65 105v 10h 10v -5a 5 5, 0, 0, 0, -5 -5" transform="rotate(90,70,110)"/><path d="M 65 125v 5a 5 5, 0, 0, 0, 5 5h 5v -5a 5 5, 0, 0, 0, -5 -5" transform="rotate(90,70,130)"/><path d="M 65 145v 5a 5 5, 0, 0, 0, 5 5h 5v -5a 5 5, 0, 0, 0, -5 -5" transform="rotate(90,70,150)"/><path d="M 65 165v 5a 5 5, 0, 0, 0, 5 5h 5v -5a 5 5, 0, 0, 0, -5 -5" transform="rotate(90,70,170)"/><path d="M 65 185v 5a 5 5, 0, 0, 0, 5 5h 5v -5a 5 5, 0, 0, 0, -5 -5" transform="rotate(90,70,190)"/><path d="M 65 205v 10h 10v -5a 5 5, 0, 0, 0, -5 -5" transform="rotate(-90,70,210)"/><path d="M 75 95v 10h 10v -5a 5 5, 0, 0, 0, -5 -5" transform="rotate(-90,80,100)"/><path d="M 75 115v 5a 5 5, 0, 0, 0, 5 5h 5v -5a 5 5, 0, 0, 0, -5 -5" transform="rotate(90,80,120)"/><rect x="75" y="205" width="10" height="10" transform="rotate(0,80,210)"/><path d="M 85 15v 10h 10v -5a 5 5, 0, 0, 0, -5 -5" transform="rotate(-90,90,20)"/><path d="M 85 45v 10h 10v -5a 5 5, 0, 0, 0, -5 -5" transform="rotate(-90,90,50)"/><path d="M 85 65v 5a 5 5, 0, 0, 0, 5 5h 5v -5a 5 5, 0, 0, 0, -5 -5" transform="rotate(90,90,70)"/><path d="M 85 85v 10h 10v -5a 5 5, 0, 0, 0, -5 -5" transform="rotate(-90,90,90)"/><rect x="85" y="95" width="10" height="10" transform="rotate(0,90,100)"/><path d="M 85 105v 10h 10v -5a 5 5, 0, 0, 0, -5 -5" transform="rotate(90,90,110)"/><path d="M 85 125v 10h 10v -5a 5 5, 0, 0, 0, -5 -5" transform="rotate(-90,90,130)"/><path d="M 85 195v 10h 10v -5a 5 5, 0, 0, 0, -5 -5" transform="rotate(-90,90,200)"/><rect x="85" y="205" width="10" height="10" transform="rotate(0,90,210)"/><path d="M 85 215v 10h 10v -5a 5 5, 0, 0, 0, -5 -5" transform="rotate(90,90,220)"/><path d="M 85 235v 10h 10v -5a 5 5, 0, 0, 0, -5 -5" transform="rotate(-90,90,240)"/><rect x="85" y="245" width="10" height="10" transform="rotate(0,90,250)"/><path d="M 85 265v 5a 5 5, 0, 0, 0, 5 5h 5v -5a 5 5, 0, 0, 0, -5 -5" transform="rotate(90,90,270)"/><rect x="95" y="15" width="10" height="10" transform="rotate(0,100,20)"/><rect x="95" y="45" width="10" height="10" transform="rotate(0,100,50)"/><path d="M 95 55v 10h 10v -5a 5 5, 0, 0, 0, -5 -5" transform="rotate(90,100,60)"/><path d="M 95 75v 10h 10v -5a 5 5, 0, 0, 0, -5 -5" transform="rotate(-90,100,80)"/><rect x="95" y="85" width="10" height="10" transform="rotate(0,100,90)"/><path d="M 95 115v 10h 10v -5a 5 5, 0, 0, 0, -5 -5" transform="rotate(-90,100,120)"/><rect x="95" y="125" width="10" height="10" transform="rotate(0,100,130)"/><rect x="95" y="135" width="10" height="10" transform="rotate(0,100,140)"/><rect x="95" y="145" width="10" height="10" transform="rotate(0,100,150)"/><rect x="95" y="155" width="10" height="10" transform="rotate(0,100,160)"/><path d="M 95 185v 10h 10v -5a 5 5, 0, 0, 0, -5 -5" transform="rotate(-90,100,190)"/><rect x="95" y="195" width="10" height="10" transform="rotate(0,100,200)"/><rect x="95" y="235" width="10" height="10" transform="rotate(0,100,240)"/><rect x="95" y="245" width="10" height="10" transform="rotate(0,100,250)"/><path d="M 95 275v 10h 10v -5a 5 5, 0, 0, 0, -5 -5" transform="rotate(-90,100,280)"/><rect x="95" y="285" width="10" height="10" transform="rotate(0,100,290)"/><rect x="105" y="15" width="10" height="10" transform="rotate(0,110,20)"/><rect x="105" y="25" width="10" height="10" transform="rotate(0,110,30)"/><rect x="105" y="35" width="10" height="10" transform="rotate(0,110,40)"/><path d="M 105 65v 5a 5 5, 0, 0, 0, 5 5h 5v -5a 5 5, 0, 0, 0, -5 -5" transform="rotate(90,110,70)"/><rect x="105" y="85" width="10" height="10" transform="rotate(0,110,90)"/><rect x="105" y="115" width="10" height="10" transform="rotate(0,110,120)"/><rect x="105" y="125" width="10" height="10" transform="rotate(0,110,130)"/><path d="M 105 135v 10h 10v -5a 5 5, 0, 0, 0, -5 -5" transform="rotate(90,110,140)"/><path d="M 105 155v 10h 10v -5a 5 5, 0, 0, 0, -5 -5" transform="rotate(90,110,160)"/><path d="M 105 175v 10h 10v -5a 5 5, 0, 0, 0, -5 -5" transform="rotate(-90,110,180)"/><rect x="105" y="195" width="10" height="10" transform="rotate(0,110,200)"/><path d="M 105 215v 10h 10v -5a 5 5, 0, 0, 0, -5 -5" transform="rotate(-90,110,220)"/><rect x="105" y="235" width="10" height="10" transform="rotate(0,110,240)"/><rect x="105" y="245" width="10" height="10" transform="rotate(0,110,250)"/><rect x="105" y="255" width="10" height="10" transform="rotate(0,110,260)"/><path d="M 105 265v 10h 10v -5a 5 5, 0, 0, 0, -5 -5" transform="rotate(90,110,270)"/><rect x="105" y="285" width="10" height="10" transform="rotate(0,110,290)"/><path d="M 115 5v 10h 10v -5a 5 5, 0, 0, 0, -5 -5" transform="rotate(-90,120,10)"/><rect x="115" y="35" width="10" height="10" transform="rotate(0,120,40)"/><rect x="115" y="45" width="10" height="10" transform="rotate(0,120,50)"/><rect x="115" y="55" width="10" height="10" transform="rotate(0,120,60)"/><path d="M 115 75v 10h 10v -5a 5 5, 0, 0, 0, -5 -5" transform="rotate(-90,120,80)"/><rect x="115" y="85" width="10" height="10" transform="rotate(0,120,90)"/><rect x="115" y="95" width="10" height="10" transform="rotate(0,120,100)"/><path d="M 115 105v 10h 10v -5a 5 5, 0, 0, 0, -5 -5" transform="rotate(90,120,110)"/><rect x="115" y="125" width="10" height="10" transform="rotate(0,120,130)"/><path d="M 115 165v 10h 10v -5a 5 5, 0, 0, 0, -5 -5" transform="rotate(-90,120,170)"/><rect x="115" y="175" width="10" height="10" transform="rotate(0,120,180)"/><rect x="115" y="185" width="10" height="10" transform="rotate(0,120,190)"/><rect x="115" y="195" width="10" height="10" transform="rotate(0,120,200)"/><rect x="115" y="205" width="10" height="10" transform="rotate(0,120,210)"/><path d="M 115 215v 10h 10v -5a 5 5, 0, 0, 0, -5 -5" transform="rotate(90,120,220)"/><rect x="115" y="235" width="10" height="10" transform="rotate(0,120,240)"/><path d="M 115 245v 10h 10v -5a 5 5, 0, 0, 0, -5 -5" transform="rotate(90,120,250)"/><path d="M 115 275v 10h 10v -5a 5 5, 0, 0, 0, -5 -5" transform="rotate(-90,120,280)"/><rect x="115" y="285" width="10" height="10" transform="rotate(0,120,290)"/><rect x="125" y="5" width="10" height="10" transform="rotate(0,130,10)"/><rect x="125" y="15" width="10" height="10" transform="rotate(0,130,20)"/><rect x="125" y="25" width="10" height="10" transform="rotate(0,130,30)"/><path d="M 125 35v 10h 10v -5a 5 5, 0, 0, 0, -5 -5" transform="rotate(90,130,40)"/><rect x="125" y="55" width="10" height="10" transform="rotate(0,130,60)"/><path d="M 125 65v 10h 10v -5a 5 5, 0, 0, 0, -5 -5" transform="rotate(90,130,70)"/><path d="M 125 85v 10h 10v -5a 5 5, 0, 0, 0, -5 -5" transform="rotate(90,130,90)"/><path d="M 125 115v 10h 10v -5a 5 5, 0, 0, 0, -5 -5" transform="rotate(-90,130,120)"/><rect x="125" y="125" width="10" height="10" transform="rotate(0,130,130)"/><path d="M 125 135v 10h 10v -5a 5 5, 0, 0, 0, -5 -5" transform="rotate(90,130,140)"/><path d="M 125 175v 10h 10v -5a 5 5, 0, 0, 0, -5 -5" transform="rotate(90,130,180)"/><path d="M 125 205v 10h 10v -5a 5 5, 0, 0, 0, -5 -5" transform="rotate(90,130,210)"/><path d="M 125 235v 10h 10v -5a 5 5, 0, 0, 0, -5 -5" transform="rotate(90,130,240)"/><rect x="125" y="285" width="10" height="10" transform="rotate(0,130,290)"/><path d="M 135 5v 10h 10v -5a 5 5, 0, 0, 0, -5 -5" transform="rotate(90,140,10)"/><path d="M 135 25v 10h 10v -5a 5 5, 0, 0, 0, -5 -5" transform="rotate(90,140,30)"/><path d="M 135 45v 10h 10v -5a 5 5, 0, 0, 0, -5 -5" transform="rotate(-90,140,50)"/><rect x="135" y="55" width="10" height="10" transform="rotate(0,140,60)"/><path d="M 135 75v 10h 10v -5a 5 5, 0, 0, 0, -5 -5" transform="rotate(-90,140,80)"/><path d="M 135 95v 10h 10v -5a 5 5, 0, 0, 0, -5 -5" transform="rotate(-90,140,100)"/><rect x="135" y="115" width="10" height="10" transform="rotate(0,140,120)"/><path d="M 135 145v 5a 5 5, 0, 0, 0, 5 5h 5v -5a 5 5, 0, 0, 0, -5 -5" transform="rotate(90,140,150)"/><path d="M 135 165v 10h 10v -5a 5 5, 0, 0, 0, -5 -5" transform="rotate(-90,140,170)"/><path d="M 135 225v 10h 10v -5a 5 5, 0, 0, 0, -5 -5" transform="rotate(-90,140,230)"/><path d="M 135 245v 10h 10v -5a 5 5, 0, 0, 0, -5 -5" transform="rotate(-90,140,250)"/><path d="M 135 265v 5a 5 5, 0, 0, 0, 5 5h 5v -5a 5 5, 0, 0, 0, -5 -5" transform="rotate(90,140,270)"/><rect x="135" y="285" width="10" height="10" transform="rotate(0,140,290)"/><path d="M 145 15v 10h 10v -5a 5 5, 0, 0, 0, -5 -5" transform="rotate(-90,150,20)"/><path d="M 145 35v 10h 10v -5a 5 5, 0, 0, 0, -5 -5" transform="rotate(-90,150,40)"/><rect x="145" y="45" width="10" height="10" transform="rotate(0,150,50)"/><rect x="145" y="55" width="10" height="10" transform="rotate(0,150,60)"/><rect x="145" y="65" width="10" height="10" transform="rotate(0,150,70)"/><path d="M 145 75v 10h 10v -5a 5 5, 0, 0, 0, -5 -5" transform="rotate(90,150,80)"/><rect x="145" y="95" width="10" height="10" transform="rotate(0,150,100)"/><rect x="145" y="105" width="10" height="10" transform="rotate(0,150,110)"/><rect x="145" y="115" width="10" height="10" transform="rotate(0,150,120)"/><rect x="145" y="125" width="10" height="10" transform="rotate(0,150,130)"/><rect x="145" y="135" width="10" height="10" transform="rotate(0,150,140)"/><path d="M 145 155v 10h 10v -5a 5 5, 0, 0, 0, -5 -5" transform="rotate(-90,150,160)"/><rect x="145" y="165" width="10" height="10" transform="rotate(0,150,170)"/><rect x="145" y="175" width="10" height="10" transform="rotate(0,150,180)"/><path d="M 145 205v 10h 10v -5a 5 5, 0, 0, 0, -5 -5" transform="rotate(-90,150,210)"/><rect x="145" y="215" width="10" height="10" transform="rotate(0,150,220)"/><path d="M 145 225v 10h 10v -5a 5 5, 0, 0, 0, -5 -5" transform="rotate(90,150,230)"/><path d="M 145 245v 10h 10v -5a 5 5, 0, 0, 0, -5 -5" transform="rotate(90,150,250)"/><path d="M 145 275v 10h 10v -5a 5 5, 0, 0, 0, -5 -5" transform="rotate(-90,150,280)"/><rect x="145" y="285" width="10" height="10" transform="rotate(0,150,290)"/><path d="M 155 5v 10h 10v -5a 5 5, 0, 0, 0, -5 -5" transform="rotate(-90,160,10)"/><rect x="155" y="15" width="10" height="10" transform="rotate(0,160,20)"/><rect x="155" y="25" width="10" height="10" transform="rotate(0,160,30)"/><rect x="155" y="35" width="10" height="10" transform="rotate(0,160,40)"/><rect x="155" y="45" width="10" height="10" transform="rotate(0,160,50)"/><path d="M 155 55v 10h 10v -5a 5 5, 0, 0, 0, -5 -5" transform="rotate(90,160,60)"/><rect x="155" y="105" width="10" height="10" transform="rotate(0,160,110)"/><path d="M 155 115v 10h 10v -5a 5 5, 0, 0, 0, -5 -5" transform="rotate(90,160,120)"/><rect x="155" y="135" width="10" height="10" transform="rotate(0,160,140)"/><rect x="155" y="145" width="10" height="10" transform="rotate(0,160,150)"/><rect x="155" y="155" width="10" height="10" transform="rotate(0,160,160)"/><rect x="155" y="165" width="10" height="10" transform="rotate(0,160,170)"/><rect x="155" y="175" width="10" height="10" transform="rotate(0,160,180)"/><rect x="155" y="185" width="10" height="10" transform="rotate(0,160,190)"/><rect x="155" y="205" width="10" height="10" transform="rotate(0,160,210)"/><path d="M 155 235v 5a 5 5, 0, 0, 0, 5 5h 5v -5a 5 5, 0, 0, 0, -5 -5" transform="rotate(90,160,240)"/><path d="M 155 255v 5a 5 5, 0, 0, 0, 5 5h 5v -5a 5 5, 0, 0, 0, -5 -5" transform="rotate(90,160,260)"/><rect x="155" y="285" width="10" height="10" transform="rotate(0,160,290)"/><rect x="165" y="15" width="10" height="10" transform="rotate(0,170,20)"/><rect x="165" y="25" width="10" height="10" transform="rotate(0,170,30)"/><rect x="165" y="45" width="10" height="10" transform="rotate(0,170,50)"/><path d="M 165 65v 5a 5 5, 0, 0, 0, 5 5h 5v -5a 5 5, 0, 0, 0, -5 -5" transform="rotate(90,170,70)"/><path d="M 165 85v 5a 5 5, 0, 0, 0, 5 5h 5v -5a 5 5, 0, 0, 0, -5 -5" transform="rotate(90,170,90)"/><rect x="165" y="105" width="10" height="10" transform="rotate(0,170,110)"/><path d="M 165 125v 10h 10v -5a 5 5, 0, 0, 0, -5 -5" transform="rotate(-90,170,130)"/><rect x="165" y="135" width="10" height="10" transform="rotate(0,170,140)"/><rect x="165" y="145" width="10" height="10" transform="rotate(0,170,150)"/><path d="M 165 155v 10h 10v -5a 5 5, 0, 0, 0, -5 -5" transform="rotate(90,170,160)"/><path d="M 165 185v 10h 10v -5a 5 5, 0, 0, 0, -5 -5" transform="rotate(90,170,190)"/><rect x="165" y="205" width="10" height="10" transform="rotate(0,170,210)"/><rect x="165" y="215" width="10" height="10" transform="rotate(0,170,220)"/><path d="M 165 275v 10h 10v -5a 5 5, 0, 0, 0, -5 -5" transform="rotate(-90,170,280)"/><rect x="165" y="285" width="10" height="10" transform="rotate(0,170,290)"/><path d="M 175 5v 5a 5 5, 0, 0, 0, 5 5h 5v -5a 5 5, 0, 0, 0, -5 -5" transform="rotate(90,180,10)"/><rect x="175" y="25" width="10" height="10" transform="rotate(0,180,30)"/><rect x="175" y="35" width="10" height="10" transform="rotate(0,180,40)"/><rect x="175" y="45" width="10" height="10" transform="rotate(0,180,50)"/><path d="M 175 75v 5a 5 5, 0, 0, 0, 5 5h 5v -5a 5 5, 0, 0, 0, -5 -5" transform="rotate(90,180,80)"/><path d="M 175 95v 10h 10v -5a 5 5, 0, 0, 0, -5 -5" transform="rotate(-90,180,100)"/><rect x="175" y="105" width="10" height="10" transform="rotate(0,180,110)"/><path d="M 175 125v 10h 10v -5a 5 5, 0, 0, 0, -5 -5" transform="rotate(90,180,130)"/><path d="M 175 165v 10h 10v -5a 5 5, 0, 0, 0, -5 -5" transform="rotate(-90,180,170)"/><path d="M 175 195v 10h 10v -5a 5 5, 0, 0, 0, -5 -5" transform="rotate(-90,180,200)"/><rect x="175" y="205" width="10" height="10" transform="rotate(0,180,210)"/><rect x="175" y="215" width="10" height="10" transform="rotate(0,180,220)"/><rect x="175" y="225" width="10" height="10" transform="rotate(0,180,230)"/><rect x="175" y="235" width="10" height="10" transform="rotate(0,180,240)"/><path d="M 175 245v 10h 10v -5a 5 5, 0, 0, 0, -5 -5" transform="rotate(90,180,250)"/><path d="M 175 265v 10h 10v -5a 5 5, 0, 0, 0, -5 -5" transform="rotate(-90,180,270)"/><rect x="175" y="285" width="10" height="10" transform="rotate(0,180,290)"/><rect x="185" y="35" width="10" height="10" transform="rotate(0,190,40)"/><path d="M 185 45v 10h 10v -5a 5 5, 0, 0, 0, -5 -5" transform="rotate(90,190,50)"/><path d="M 185 65v 5a 5 5, 0, 0, 0, 5 5h 5v -5a 5 5, 0, 0, 0, -5 -5" transform="rotate(90,190,70)"/><rect x="185" y="95" width="10" height="10" transform="rotate(0,190,100)"/><rect x="185" y="105" width="10" height="10" transform="rotate(0,190,110)"/><path d="M 185 135v 5a 5 5, 0, 0, 0, 5 5h 5v -5a 5 5, 0, 0, 0, -5 -5" transform="rotate(90,190,140)"/><path d="M 185 165v 10h 10v -5a 5 5, 0, 0, 0, -5 -5" transform="rotate(90,190,170)"/><path d="M 185 235v 10h 10v -5a 5 5, 0, 0, 0, -5 -5" transform="rotate(90,190,240)"/><path d="M 185 255v 10h 10v -5a 5 5, 0, 0, 0, -5 -5" transform="rotate(-90,190,260)"/><path d="M 185 265v 10h 10v -5a 5 5, 0, 0, 0, -5 -5" transform="rotate(90,190,270)"/><rect x="185" y="285" width="10" height="10" transform="rotate(0,190,290)"/><path d="M 195 35v 10h 10v -5a 5 5, 0, 0, 0, -5 -5" transform="rotate(90,200,40)"/><path d="M 195 55v 10h 10v -5a 5 5, 0, 0, 0, -5 -5" transform="rotate(-90,200,60)"/><path d="M 195 85v 10h 10v -5a 5 5, 0, 0, 0, -5 -5" transform="rotate(-90,200,90)"/><rect x="195" y="95" width="10" height="10" transform="rotate(0,200,100)"/><rect x="195" y="105" width="10" height="10" transform="rotate(0,200,110)"/><path d="M 195 145v 5a 5 5, 0, 0, 0, 5 5h 5v -5a 5 5, 0, 0, 0, -5 -5" transform="rotate(90,200,150)"/><path d="M 195 175v 10h 10v -5a 5 5, 0, 0, 0, -5 -5" transform="rotate(-90,200,180)"/><path d="M 195 205v 10h 10v -5a 5 5, 0, 0, 0, -5 -5" transform="rotate(-90,200,210)"/><path d="M 195 245v 10h 10v -5a 5 5, 0, 0, 0, -5 -5" transform="rotate(-90,200,250)"/><path d="M 195 255v 10h 10v -5a 5 5, 0, 0, 0, -5 -5" transform="rotate(90,200,260)"/><rect x="195" y="285" width="10" height="10" transform="rotate(0,200,290)"/><path d="M 205 5v 10h 10v -5a 5 5, 0, 0, 0, -5 -5" transform="rotate(-90,210,10)"/><path d="M 205 15v 10h 10v -5a 5 5, 0, 0, 0, -5 -5" transform="rotate(90,210,20)"/><path d="M 205 45v 10h 10v -5a 5 5, 0, 0, 0, -5 -5" transform="rotate(-90,210,50)"/><rect x="205" y="55" width="10" height="10" transform="rotate(0,210,60)"/><path d="M 205 65v 10h 10v -5a 5 5, 0, 0, 0, -5 -5" transform="rotate(90,210,70)"/><path d="M 205 105v 10h 10v -5a 5 5, 0, 0, 0, -5 -5" transform="rotate(90,210,110)"/><path d="M 205 125v 10h 10v -5a 5 5, 0, 0, 0, -5 -5" transform="rotate(-90,210,130)"/><path d="M 205 135v 10h 10v -5a 5 5, 0, 0, 0, -5 -5" transform="rotate(90,210,140)"/><path d="M 205 155v 10h 10v -5a 5 5, 0, 0, 0, -5 -5" transform="rotate(-90,210,160)"/><rect x="205" y="175" width="10" height="10" transform="rotate(0,210,180)"/><rect x="205" y="185" width="10" height="10" transform="rotate(0,210,190)"/><rect x="205" y="195" width="10" height="10" transform="rotate(0,210,200)"/><rect x="205" y="205" width="10" height="10" transform="rotate(0,210,210)"/><rect x="205" y="215" width="10" height="10" transform="rotate(0,210,220)"/><rect x="205" y="225" width="10" height="10" transform="rotate(0,210,230)"/><rect x="205" y="235" width="10" height="10" transform="rotate(0,210,240)"/><rect x="205" y="245" width="10" height="10" transform="rotate(0,210,250)"/><path d="M 205 265v 10h 10v -5a 5 5, 0, 0, 0, -5 -5" transform="rotate(-90,210,270)"/><rect x="205" y="285" width="10" height="10" transform="rotate(0,210,290)"/><path d="M 215 85v 10h 10v -5a 5 5, 0, 0, 0, -5 -5" transform="rotate(-90,220,90)"/><rect x="215" y="95" width="10" height="10" transform="rotate(0,220,100)"/><rect x="215" y="155" width="10" height="10" transform="rotate(0,220,160)"/><rect x="215" y="165" width="10" height="10" transform="rotate(0,220,170)"/><rect x="215" y="175" width="10" height="10" transform="rotate(0,220,180)"/><rect x="215" y="185" width="10" height="10" transform="rotate(0,220,190)"/><rect x="215" y="195" width="10" height="10" transform="rotate(0,220,200)"/><rect x="215" y="205" width="10" height="10" transform="rotate(0,220,210)"/><rect x="215" y="245" width="10" height="10" transform="rotate(0,220,250)"/><path d="M 215 265v 10h 10v -5a 5 5, 0, 0, 0, -5 -5" transform="rotate(90,220,270)"/><rect x="215" y="285" width="10" height="10" transform="rotate(0,220,290)"/><rect x="225" y="95" width="10" height="10" transform="rotate(0,230,100)"/><path d="M 225 115v 10h 10v -5a 5 5, 0, 0, 0, -5 -5" transform="rotate(-90,230,120)"/><path d="M 225 145v 10h 10v -5a 5 5, 0, 0, 0, -5 -5" transform="rotate(-90,230,150)"/><path d="M 225 155v 10h 10v -5a 5 5, 0, 0, 0, -5 -5" transform="rotate(90,230,160)"/><rect x="225" y="185" width="10" height="10" transform="rotate(0,230,190)"/><rect x="225" y="195" width="10" height="10" transform="rotate(0,230,200)"/><rect x="225" y="205" width="10" height="10" transform="rotate(0,230,210)"/><path d="M 225 225v 5a 5 5, 0, 0, 0, 5 5h 5v -5a 5 5, 0, 0, 0, -5 -5" transform="rotate(90,230,230)"/><rect x="225" y="245" width="10" height="10" transform="rotate(0,230,250)"/><path d="M 225 285v 10h 10v -5a 5 5, 0, 0, 0, -5 -5" transform="rotate(90,230,290)"/><rect x="235" y="95" width="10" height="10" transform="rotate(0,240,100)"/><rect x="235" y="115" width="10" height="10" transform="rotate(0,240,120)"/><rect x="235" y="125" width="10" height="10" transform="rotate(0,240,130)"/><rect x="235" y="135" width="10" height="10" transform="rotate(0,240,140)"/><path d="M 235 165v 10h 10v -5a 5 5, 0, 0, 0, -5 -5" transform="rotate(-90,240,170)"/><rect x="235" y="195" width="10" height="10" transform="rotate(0,240,200)"/><rect x="235" y="205" width="10" height="10" transform="rotate(0,240,210)"/><rect x="235" y="245" width="10" height="10" transform="rotate(0,240,250)"/><path d="M 235 255v 10h 10v -5a 5 5, 0, 0, 0, -5 -5" transform="rotate(90,240,260)"/><path d="M 245 85v 10h 10v -5a 5 5, 0, 0, 0, -5 -5" transform="rotate(-90,250,90)"/><rect x="245" y="95" width="10" height="10" transform="rotate(0,250,100)"/><rect x="245" y="105" width="10" height="10" transform="rotate(0,250,110)"/><rect x="245" y="135" width="10" height="10" transform="rotate(0,250,140)"/><rect x="245" y="145" width="10" height="10" transform="rotate(0,250,150)"/><path d="M 245 165v 10h 10v -5a 5 5, 0, 0, 0, -5 -5" transform="rotate(90,250,170)"/><rect x="245" y="195" width="10" height="10" transform="rotate(0,250,200)"/><rect x="245" y="205" width="10" height="10" transform="rotate(0,250,210)"/><rect x="245" y="215" width="10" height="10" transform="rotate(0,250,220)"/><rect x="245" y="225" width="10" height="10" transform="rotate(0,250,230)"/><rect x="245" y="235" width="10" height="10" transform="rotate(0,250,240)"/><path d="M 245 245v 10h 10v -5a 5 5, 0, 0, 0, -5 -5" transform="rotate(90,250,250)"/><path d="M 245 275v 10h 10v -5a 5 5, 0, 0, 0, -5 -5" transform="rotate(-90,250,280)"/><path d="M 245 285v 10h 10v -5a 5 5, 0, 0, 0, -5 -5" transform="rotate(90,250,290)"/><rect x="255" y="105" width="10" height="10" transform="rotate(0,260,110)"/><rect x="255" y="115" width="10" height="10" transform="rotate(0,260,120)"/><rect x="255" y="125" width="10" height="10" transform="rotate(0,260,130)"/><rect x="255" y="135" width="10" height="10" transform="rotate(0,260,140)"/><path d="M 255 145v 10h 10v -5a 5 5, 0, 0, 0, -5 -5" transform="rotate(90,260,150)"/><path d="M 255 175v 10h 10v -5a 5 5, 0, 0, 0, -5 -5" transform="rotate(-90,260,180)"/><rect x="255" y="185" width="10" height="10" transform="rotate(0,260,190)"/><path d="M 255 235v 10h 10v -5a 5 5, 0, 0, 0, -5 -5" transform="rotate(90,260,240)"/><path d="M 255 255v 10h 10v -5a 5 5, 0, 0, 0, -5 -5" transform="rotate(-90,260,260)"/><rect x="255" y="265" width="10" height="10" transform="rotate(0,260,270)"/><rect x="255" y="275" width="10" height="10" transform="rotate(0,260,280)"/><path d="M 265 95v 10h 10v -5a 5 5, 0, 0, 0, -5 -5" transform="rotate(-90,270,100)"/><rect x="265" y="105" width="10" height="10" transform="rotate(0,270,110)"/><rect x="265" y="115" width="10" height="10" transform="rotate(0,270,120)"/><rect x="265" y="125" width="10" height="10" transform="rotate(0,270,130)"/><path d="M 265 155v 10h 10v -5a 5 5, 0, 0, 0, -5 -5" transform="rotate(-90,270,160)"/><rect x="265" y="185" width="10" height="10" transform="rotate(0,270,190)"/><rect x="265" y="195" width="10" height="10" transform="rotate(0,270,200)"/><rect x="265" y="205" width="10" height="10" transform="rotate(0,270,210)"/><path d="M 265 215v 10h 10v -5a 5 5, 0, 0, 0, -5 -5" transform="rotate(90,270,220)"/><rect x="265" y="265" width="10" height="10" transform="rotate(0,270,270)"/><rect x="265" y="275" width="10" height="10" transform="rotate(0,270,280)"/><rect x="265" y="285" width="10" height="10" transform="rotate(0,270,290)"/><path d="M 275 85v 5a 5 5, 0, 0, 0, 5 5h 5v -5a 5 5, 0, 0, 0, -5 -5" transform="rotate(90,280,90)"/><rect x="275" y="105" width="10" height="10" transform="rotate(0,280,110)"/><rect x="275" y="125" width="10" height="10" transform="rotate(0,280,130)"/><path d="M 275 145v 10h 10v -5a 5 5, 0, 0, 0, -5 -5" transform="rotate(-90,280,150)"/><rect x="275" y="155" width="10" height="10" transform="rotate(0,280,160)"/><rect x="275" y="165" width="10" height="10" transform="rotate(0,280,170)"/><rect x="275" y="175" width="10" height="10" transform="rotate(0,280,180)"/><path d="M 275 195v 10h 10v -5a 5 5, 0, 0, 0, -5 -5" transform="rotate(90,280,200)"/><path d="M 275 225v 10h 10v -5a 5 5, 0, 0, 0, -5 -5" transform="rotate(-90,280,230)"/><path d="M 275 235v 10h 10v -5a 5 5, 0, 0, 0, -5 -5" transform="rotate(90,280,240)"/><path d="M 275 255v 10h 10v -5a 5 5, 0, 0, 0, -5 -5" transform="rotate(-90,280,260)"/><rect x="275" y="275" width="10" height="10" transform="rotate(0,280,280)"/><path d="M 275 285v 10h 10v -5a 5 5, 0, 0, 0, -5 -5" transform="rotate(90,280,290)"/><path d="M 285 95v 10h 10v -5a 5 5, 0, 0, 0, -5 -5" transform="rotate(-90,290,100)"/><path d="M 285 105v 10h 10v -5a 5 5, 0, 0, 0, -5 -5" transform="rotate(90,290,110)"/><rect x="285" y="125" width="10" height="10" transform="rotate(0,290,130)"/><path d="M 285 135v 10h 10v -5a 5 5, 0, 0, 0, -5 -5" transform="rotate(90,290,140)"/><path d="M 285 175v 10h 10v -5a 5 5, 0, 0, 0, -5 -5" transform="rotate(90,290,180)"/><path d="M 285 205v 5a 5 5, 0, 0, 0, 5 5h 5v -5a 5 5, 0, 0, 0, -5 -5" transform="rotate(90,290,210)"/><path d="M 285 245v 10h 10v -5a 5 5, 0, 0, 0, -5 -5" transform="rotate(-90,290,250)"/><rect x="285" y="255" width="10" height="10" transform="rotate(0,290,260)"/><rect x="285" y="265" width="10" height="10" transform="rotate(0,290,270)"/><path d="M 285 275v 10h 10v -5a 5 5, 0, 0, 0, -5 -5" transform="rotate(90,290,280)"/></g><g class="corners-square-color-0-0"><path clip-rule="evenodd" d="M 5 30v 20a 25 25, 0, 0, 0, 25 25h 20a 25 25, 0, 0, 0, 25 -25v -20a 25 25, 0, 0, 0, -25 -25h -20a 25 25, 0, 0, 0, -25 25M 30 15h 20a 15 15, 0, 0, 1, 15 15v 20a 15 15, 0, 0, 1, -15 15h -20a 15 15, 0, 0, 1, -15 -15v -20a 15 15, 0, 0, 1, 15 -15" transform="rotate(0,40,40)"/></g><g class="corners-dot-color-0-0"><rect x="25" y="25" width="30" height="30" transform="rotate(0,40,40)"/></g><g class="corners-square-color-1-0"><path clip-rule="evenodd" d="M 225 30v 20a 25 25, 0, 0, 0, 25 25h 20a 25 25, 0, 0, 0, 25 -25v -20a 25 25, 0, 0, 0, -25 -25h -20a 25 25, 0, 0, 0, -25 25M 250 15h 20a 15 15, 0, 0, 1, 15 15v 20a 15 15, 0, 0, 1, -15 15h -20a 15 15, 0, 0, 1, -15 -15v -20a 15 15, 0, 0, 1, 15 -15" transform="rotate(90,260,40)"/></g><g class="corners-dot-color-1-0"><rect x="245" y="25" width="30" height="30" transform="rotate(90,260,40)"/></g><g class="corners-square-color-0-1"><path clip-rule="evenodd" d="M 5 250v 20a 25 25, 0, 0, 0, 25 25h 20a 25 25, 0, 0, 0, 25 -25v -20a 25 25, 0, 0, 0, -25 -25h -20a 25 25, 0, 0, 0, -25 25M 30 235h 20a 15 15, 0, 0, 1, 15 15v 20a 15 15, 0, 0, 1, -15 15h -20a 15 15, 0, 0, 1, -15 -15v -20a 15 15, 0, 0, 1, 15 -15" transform="rotate(-90,40,260)"/></g><g class="corners-dot-color-0-1"><rect x="25" y="245" width="30" height="30" transform="rotate(-90,40,260)"/></g></svg></g></svg></svg>