<svg xmlns="http://www.w3.org/2000/svg" enable-background="new 0 0 66 66" viewBox="0 0 66 66"><rect width="54.86" height="37.33" x="5.57" y="20.56" fill="#fc3"/><rect width="16.62" height="21.84" x="10.63" y="36.05" fill="#666"/><rect width="13.73" height="20.39" x="12.07" y="37.5" fill="#6cf"/><rect width="10.36" height="10.88" x="43.16" y="33.52" fill="#666"/><rect width="7.97" height="7.5" x="44.36" y="35.2" fill="#6cf" transform="rotate(90 48.341 38.954)"/><rect width="10.36" height="10.88" x="43.16" y="42.94" fill="#666"/><rect width="7.97" height="7.5" x="44.36" y="44.63" fill="#6cf" transform="rotate(90 48.341 48.376)"/><rect width="10.36" height="10.88" x="34.23" y="33.52" fill="#666"/><rect width="7.97" height="7.5" x="35.43" y="35.2" fill="#6cf" transform="rotate(90 39.409 38.954)"/><rect width="10.36" height="10.88" x="34.23" y="42.94" fill="#666"/><rect width="7.97" height="7.5" x="35.43" y="44.63" fill="#6cf" transform="rotate(90 39.409 48.376)"/><path fill="#cf4c44" d="M10.14,23.19v1.34c0,2.52-2.05,4.57-4.57,4.57h0C3.05,29.1,1,27.06,1,24.53v-1.34H10.14z"/><path fill="#e1e5e4" d="M19.29,23.19v1.34c0,2.52-2.05,4.57-4.57,4.57h0c-2.52,0-4.57-2.05-4.57-4.57v-1.34H19.29z"/><path fill="#cf4c44" d="M28.43,23.19v1.34c0,2.52-2.05,4.57-4.57,4.57h0c-2.52,0-4.57-2.05-4.57-4.57v-1.34H28.43z"/><path fill="#e1e5e4" d="M37.57,23.19v1.34c0,2.52-2.05,4.57-4.57,4.57h0c-2.52,0-4.57-2.05-4.57-4.57v-1.34H37.57z"/><path fill="#cf4c44" d="M46.71,23.19v1.34c0,2.52-2.05,4.57-4.57,4.57h0c-2.52,0-4.57-2.05-4.57-4.57v-1.34H46.71z"/><path fill="#e1e5e4" d="M55.86,23.19v1.34c0,2.52-2.05,4.57-4.57,4.57h0c-2.52,0-4.57-2.05-4.57-4.57v-1.34H55.86z"/><path fill="#cf4c44" d="M65,23.19v1.34c0,2.52-2.05,4.57-4.57,4.57h0c-2.52,0-4.57-2.05-4.57-4.57v-1.34H65z"/><polygon fill="#fc5151" points="14.88 7.48 10.14 23.19 1 23.19 7.63 7.48"/><polygon fill="#f5f5f5" points="22.13 7.48 19.29 23.19 10.14 23.19 14.88 7.48"/><polygon fill="#fc5151" points="29.38 7.48 28.43 23.19 19.29 23.19 22.13 7.48"/><polygon fill="#f5f5f5" points="36.63 7.48 37.57 23.19 28.43 23.19 29.38 7.48"/><polygon fill="#fc5151" points="43.88 7.48 46.71 23.19 37.57 23.19 36.63 7.48"/><polygon fill="#f5f5f5" points="51.13 7.48 55.86 23.19 46.71 23.19 43.88 7.48"/><polygon fill="#fc5151" points="58.38 7.48 65 23.19 55.86 23.19 51.13 7.48"/><rect width="50.74" height="3.84" x="7.63" y="3.65" fill="#666"/><rect width="59.92" height="4.47" x="3.04" y="57.89" fill="#666"/></svg>