<svg xmlns="http://www.w3.org/2000/svg" width="256" height="256" enable-background="new 0 0 256 256" viewBox="0 0 256 256"><linearGradient id="a" x1="127.999" x2="127.999" y1="21.35" y2="238.728" gradientUnits="userSpaceOnUse"><stop offset="0" stop-color="#f9aa2d"/><stop offset="1" stop-color="#e09115"/></linearGradient><path fill="url(#a)" d="M253.866,94.906l-15.84-20.814c-9.74,3.675-21.12,0.735-27.75-7.97
		c-6.62-8.71-6.42-20.46-0.28-28.865l-16.539-21.735c-3.5-4.6-10.13-5.505-14.73-2l-23.919,18.2c0.3,0.165,0.569,0.385,0.79,0.67
		c0.83,1.09,0.609,2.65-0.48,3.475c-1.09,0.83-2.64,0.62-3.47-0.47c-0.22-0.29-0.36-0.61-0.43-0.94L4.134,146.36
		c-4.6,3.5-5.5,10.13-2,14.73l16.535,21.739c9.74-3.68,21.12-0.74,27.745,7.96c6.625,8.71,6.425,20.47,0.28,28.87l15.84,20.819
		c3.505,4.6,10.135,5.5,14.735,2l147.148-111.959c-0.37-0.164-0.699-0.404-0.97-0.75c-0.83-1.089-0.61-2.645,0.47-3.475
		c1.101-0.83,2.65-0.62,3.48,0.47c0.26,0.345,0.41,0.735,0.47,1.135l24-18.26C256.466,106.141,257.366,99.511,253.866,94.906z
		 M160.228,42.577c-1.09,0.83-2.641,0.615-3.48-0.475c-0.819-1.085-0.609-2.645,0.48-3.47c1.08-0.83,2.64-0.62,3.47,0.47
		C161.527,40.192,161.317,41.747,160.228,42.577z M165.327,49.282c-1.09,0.83-2.64,0.62-3.47-0.47c-0.83-1.09-0.62-2.645,0.47-3.475
		c1.09-0.825,2.64-0.62,3.48,0.475C166.637,46.902,166.417,48.457,165.327,49.282z M170.438,55.992c-1.091,0.83-2.65,0.62-3.48-0.47
		s-0.62-2.645,0.47-3.475c1.091-0.83,2.65-0.615,3.48,0.47C171.737,53.607,171.517,55.162,170.438,55.992z M175.537,62.702
		c-1.09,0.83-2.65,0.62-3.47-0.475c-0.83-1.085-0.62-2.645,0.47-3.47c1.09-0.83,2.64-0.62,3.47,0.47S176.627,61.872,175.537,62.702z
		 M180.646,69.412c-1.1,0.825-2.649,0.615-3.479-0.475c-0.83-1.09-0.62-2.645,0.48-3.475c1.079-0.825,2.64-0.615,3.47,0.475
		C181.947,67.027,181.737,68.582,180.646,69.412z M186.237,76.762c-1.091,0.83-2.65,0.62-3.48-0.47
		c-0.82-1.09-0.61-2.645,0.48-3.475c1.09-0.83,2.64-0.62,3.47,0.475C187.537,74.377,187.327,75.932,186.237,76.762z M191.337,83.472
		c-1.09,0.83-2.64,0.615-3.47-0.47c-0.83-1.095-0.62-2.645,0.47-3.475s2.649-0.62,3.479,0.47
		C192.637,81.087,192.437,82.642,191.337,83.472z M196.446,90.182c-1.09,0.825-2.649,0.615-3.47-0.475
		c-0.83-1.09-0.62-2.645,0.47-3.475c1.08-0.825,2.641-0.615,3.471,0.475S197.537,89.352,196.446,90.182z M201.547,96.886
		c-1.09,0.83-2.641,0.62-3.47-0.47c-0.83-1.09-0.62-2.645,0.47-3.475s2.64-0.615,3.47,0.475
		C202.847,94.501,202.637,96.062,201.547,96.886z M206.656,103.596c-1.09,0.83-2.649,0.615-3.479-0.47
		c-0.83-1.09-0.62-2.65,0.479-3.475c1.08-0.83,2.641-0.62,3.471,0.47C207.957,101.211,207.736,102.767,206.656,103.596z
		 M211.757,110.301c-1.09,0.83-2.65,0.62-3.471-0.47c-0.829-1.085-0.619-2.645,0.471-3.47c1.09-0.83,2.64-0.62,3.47,0.47
		C213.057,107.921,212.847,109.476,211.757,110.301z M216.717,116.826c-1.091,0.83-2.641,0.62-3.471-0.475
		c-0.83-1.09-0.619-2.645,0.471-3.47c1.09-0.83,2.64-0.62,3.479,0.47C218.017,114.441,217.807,115.996,216.717,116.826z
		 M221.826,123.531c-1.1,0.83-2.649,0.62-3.479-0.47c-0.83-1.085-0.62-2.645,0.47-3.475c1.09-0.825,2.65-0.615,3.47,0.475
		C223.126,121.151,222.906,122.706,221.826,123.531z"/><path fill="#2C2C2C" d="M46.414,186.46c-6.625-8.71-18.005-11.64-27.745-7.97L2.134,156.761
		c-0.97-1.28-1.59-2.71-1.9-4.19c-0.605,2.88-0.015,6,1.9,8.521l16.535,21.739c9.74-3.68,21.12-0.74,27.745,7.96
		c2.85,3.75,4.43,8.06,4.825,12.42C51.753,197.43,50.208,191.45,46.414,186.46z M223.446,129.771c-0.61-0.805-0.65-1.859-0.19-2.694
		L77.268,238.149c-4.6,3.5-11.23,2.6-14.735-2l-14.34-18.85c-0.455,0.81-0.945,1.6-1.5,2.36l15.84,20.819
		c3.505,4.6,10.135,5.5,14.735,2l147.148-111.959C224.046,130.356,223.717,130.116,223.446,129.771z M224.246,126.091
		c1.061-0.57,2.4-0.31,3.15,0.675c0.26,0.345,0.41,0.735,0.47,1.135l24-18.26c3.319-2.53,4.699-6.69,3.899-10.54
		c-0.5,2.39-1.819,4.62-3.899,6.21l-24,18.254L224.246,126.091z" opacity=".2"/><linearGradient id="b" x1="47.336" x2="194.75" y1="136.906" y2="136.906" gradientUnits="userSpaceOnUse"><stop offset="0" stop-color="#fee587"/><stop offset="1" stop-color="#f2d972"/></linearGradient><path fill="url(#b)" d="M193.687,118.396c1.75,2.3,1.29,5.615-1.01,7.365L91.198,202.979c-2.305,1.75-5.615,1.301-7.37-1.01
		l-35.424-46.549c-1.75-2.311-1.3-5.62,1-7.37l101.494-77.214c2.29-1.755,5.609-1.3,7.359,1L193.687,118.396z"/><text fill="#2C330D" font-family="'ArialRoundedMTBold'" font-size="34.732" transform="matrix(.8163 -.6453 .6202 .7845 87.393 181.58)">Ticket</text></svg>