<svg xmlns="http://www.w3.org/2000/svg" data-name="Layer 1" viewBox="0 0 32 32"><rect width="15" height="8" x="8.5" y=".5" fill="#37b678" rx="2" ry="2"/><path fill="#00a653" d="M9.5,6.5v-4a2,2,0,0,1,2-2h-1a2,2,0,0,0-2,2v4a2,2,0,0,0,2,2h1A2,2,0,0,1,9.5,6.5Z"/><rect width="15" height="8" x="8.5" y="23.5" fill="#4ebaea" rx="2" ry="2"/><path fill="#2e99d4" d="M9.5,29.5v-4a2,2,0,0,1,2-2h-1a2,2,0,0,0-2,2v4a2,2,0,0,0,2,2h1A2,2,0,0,1,9.5,29.5Z"/><path fill="#8b8891" d="M24.707,18.41406a.49838.49838,0,0,1-.35352-.14648l-1.41406-1.41406a.49982.49982,0,0,1,0-.707l1.41406-1.41406a.49995.49995,0,0,1,.707.707L24,16.5l1.06055,1.06055a.5.5,0,0,1-.35352.85352Z"/><path fill="#8b8891" d="M29.5 17h-6a.5.5 0 0 1 0-1h6A1.50164 1.50164 0 0 0 31 14.5v-7A1.50164 1.50164 0 0 0 29.5 6h-4a.5.5 0 0 1 0-1h4A2.50232 2.50232 0 0 1 32 7.5v7A2.50232 2.50232 0 0 1 29.5 17zM5.293 29.41406a.5.5 0 0 1-.35352-.85352L6 27.5 4.93945 26.43945a.49995.49995 0 0 1 .707-.707l1.41406 1.41406a.49982.49982 0 0 1 0 .707L5.64648 29.26758A.49838.49838 0 0 1 5.293 29.41406z"/><path fill="#8b8891" d="M6.5,28h-4A2.50232,2.50232,0,0,1,0,25.5v-7A2.50232,2.50232,0,0,1,2.5,16h6a.5.5,0,0,1,0,1h-6A1.50164,1.50164,0,0,0,1,18.5v7A1.50164,1.50164,0,0,0,2.5,27h4a.5.5,0,0,1,0,1Z"/><path fill="#e5303e" d="M16,22a6,6,0,1,1,6-6A6.00656,6.00656,0,0,1,16,22Zm0-11a5,5,0,1,0,5,5A5.00589,5.00589,0,0,0,16,11Z"/><path fill="#b72732" d="M10.5,16a6.00214,6.00214,0,0,1,5.75-5.98737C16.16644,10.00916,16.08441,10,16,10a6,6,0,0,0,0,12c.08441,0,.16644-.00916.25-.01263A6.00214,6.00214,0,0,1,10.5,16Z"/><circle cx="16" cy="16" r="5" fill="#fff"/><path fill="#e0e0e2" d="M12,16a4.98293,4.98293,0,0,1,4.5-4.94958A4.89692,4.89692,0,0,0,16,11a5,5,0,0,0,0,10,4.89692,4.89692,0,0,0,.5-.05042A4.98293,4.98293,0,0,1,12,16Z"/><path fill="#3c3b41" d="M18.25 16.5H17a.5.5 0 0 1 0-1h1.25a.5.5 0 0 1 0 1zM16 15.5a.49971.49971 0 0 1-.5-.5V13.25a.5.5 0 0 1 1 0V15A.49971.49971 0 0 1 16 15.5z"/><path fill="#fff" d="M20.5 4h-9a.5.5 0 0 1 0-1h9a.5.5 0 0 1 0 1zM16.5 6h-5a.5.5 0 0 1 0-1h5a.5.5 0 0 1 0 1zM20.5 27h-9a.5.5 0 0 1 0-1h9a.5.5 0 0 1 0 1zM16.5 29h-5a.5.5 0 0 1 0-1h5a.5.5 0 0 1 0 1z"/><circle cx="16" cy="16" r="1" fill="#e5303e" transform="rotate(-37.84 16 16)"/></svg>