<svg xmlns="http://www.w3.org/2000/svg" viewBox="0 0 64 64"><rect width="58" height="30" x="3" y="17" fill="#49b170" rx="3"/><path fill="#00913e" d="M55,26a3,3,0,0,1-3-3,1,1,0,0,0-1-1H13a1,1,0,0,0-1,1,3,3,0,0,1-3,3,1,1,0,0,0-1,1V37a1,1,0,0,0,1,1,3,3,0,0,1,3,3,1,1,0,0,0,1,1H51a1,1,0,0,0,1-1,3,3,0,0,1,3-3,1,1,0,0,0,1-1V27A1,1,0,0,0,55,26Z"/><circle cx="32" cy="32" r="8" fill="#fff042"/><circle cx="18" cy="32" r="3" fill="#f7a600"/><circle cx="46" cy="32" r="3" fill="#f7a600"/><path fill="#f7a600" d="M32.67,31H31.33c-.15,0-.33-.21-.33-.5s.18-.5.33-.5h2a1,1,0,0,0,0-2H33V25a1,1,0,0,0-2,0v3a2.51,2.51,0,0,0,.33,5h1.34c.15,0,.33.21.33.5s-.18.5-.33.5h-2a1,1,0,0,0,0,2H31v3a1,1,0,0,0,2,0V36a2.51,2.51,0,0,0-.33-5Z"/><path fill="#f7a600" d="M32,40a8,8,0,1,1,6.57-12.55A7.85,7.85,0,0,1,40,32,8,8,0,0,1,32,40Zm0-14.77A6.77,6.77,0,1,0,38.77,32,6.79,6.79,0,0,0,32,25.23Z"/></svg>