<svg xmlns="http://www.w3.org/2000/svg" data-name="Layer 1" viewBox="0 0 64 64"><circle cx="32" cy="32" r="27" fill="#e6e7e8"/><path fill="#2a292a" d="M40.4 57.66a27 27 0 01-29.3-8.58 8.68 8.68 0 015.83-2.24h13.75A8.69 8.69 0 0139 53z"/><path fill="#ffd2b4" d="M27.62 43v5.22a.9.9 0 01-.5.81l-2.92 1.42a.9.9 0 01-.81 0L20.48 49a.9.9 0 01-.5-.81V43a.9.9 0 01.9-.9h5.83a.9.9 0 01.91.9z"/><path fill="#fff" d="M27.62 46.84v1.35a.9.9 0 01-.5.8l-2.92 1.47a.89.89 0 01-.8 0L20.48 49a.9.9 0 01-.5-.8v-1.36h-1.9v1.35a2.78 2.78 0 001.55 2.51l2.91 1.46a2.83 2.83 0 002.52 0L28 50.7a2.78 2.78 0 001.55-2.51v-1.35z" opacity=".1"/><path fill="#ffd2b4" d="M23.8 19.38c10.92 0 10 10.29 10 10.29 1.6-.17 2.86.47 2.86 2.73s-1 2.72-2.24 2.85a.27.27 0 00-.26.26c-.37 3.52-2.86 6.1-5.32 7.82a8.74 8.74 0 01-10.07 0c-2.45-1.73-4.95-4.31-5.32-7.82a.27.27 0 00-.26-.26c-1.25-.13-2.24-.6-2.24-2.85s1.21-2.9 2.81-2.73c0 0-.89-10.29 10.04-10.29z"/><path fill="#262234" d="M27.62 44.06v1.43a8.73 8.73 0 01-7.63 0v-1.43a8.73 8.73 0 007.63 0z" opacity=".1"/><circle cx="20.03" cy="31.72" r="1.62" fill="#262234"/><circle cx="27.58" cy="31.72" r="1.62" fill="#262234"/><path fill="#2a292a" d="M34.77 24.14a10 10 0 00-.42-2.33 10.44 10.44 0 00.17-3.92.71.71 0 00-.94-.52c-.23.09-.47.16-.72.24a4.47 4.47 0 000-1.08.73.73 0 00-1-.57 29.42 29.42 0 01-7.64 1.35h-.42c-5.81 0-10.53.29-11 6.83a28.85 28.85 0 00.2 5.27 20.54 20.54 0 00.3 2.61c.17.69 2 .66 2.08 0s-.32-4 1.31-7a19.56 19.56 0 007.14 1.16 19.58 19.58 0 007.1-1.18c1.63 3.07 1.22 6.51 1.31 7s1.92.64 2.08 0a18.27 18.27 0 00.27-2.33 29.34 29.34 0 00.18-5.53z"/><path fill="#691c24" d="M27.49 35.9a1 1 0 01.93 1.19 4.77 4.77 0 01-9.24 0 1 1 0 01.93-1.19z"/><path fill="#be1e2d" d="M26.11 40.07a4.8 4.8 0 01-4.62 0c.19-1.17 1.15-1.5 2.31-1.5s2.12.33 2.31 1.5z"/><path fill="#fff" d="M26.54 35.9v.91a.35.35 0 01-.34.35h-4.79a.35.35 0 01-.34-.35v-.91z"/><path fill="#39b54a" d="M57.68 22.19H42.61a3.2 3.2 0 00-3.19 3.19v9.3a3.2 3.2 0 003.06 3.18l-.85 3.8a1 1 0 001.58 1l6.22-4.79h8.26a3.2 3.2 0 003.19-3.19v-9.3a3.2 3.2 0 00-3.2-3.19z"/><path fill="#fff" d="M49 34.21a1.34 1.34 0 01-1-.39l-3.27-3.27a1.35 1.35 0 011.91-1.91L49 30.95l4.69-4.69a1.35 1.35 0 011.91 1.91l-5.65 5.65a1.35 1.35 0 01-.95.39z"/></svg>